<svg width="358" height="143" viewBox="0 0 358 143" fill="none" xmlns="http://www.w3.org/2000/svg">
<rect x="143.5" y="2.5" width="72" height="92" fill="#C4C4C4" stroke="#8A7171" stroke-width="5"/>
<mask id="path-2-inside-1_39_5" fill="white">
<rect x="75.9999" y="89" width="213" height="16" rx="4"/>
</mask>
<rect x="75.9999" y="89" width="213" height="16" rx="4" fill="#C4C4C4" stroke="#8A7171" stroke-width="10" mask="url(#path-2-inside-1_39_5)"/>
<mask id="path-3-inside-2_39_5" fill="white">
<rect x="12" y="118" width="18" height="16" rx="4"/>
</mask>
<rect x="12" y="118" width="18" height="16" rx="4" fill="#C4C4C4" stroke="#8A7171" stroke-width="10" mask="url(#path-3-inside-2_39_5)"/>
<mask id="path-4-inside-3_39_5" fill="white">
<rect x="32" y="118" width="18" height="16" rx="4"/>
</mask>
<rect x="32" y="118" width="18" height="16" rx="4" fill="#C4C4C4" stroke="#8A7171" stroke-width="10" mask="url(#path-4-inside-3_39_5)"/>
<mask id="path-5-inside-4_39_5" fill="white">
<rect x="52" y="118" width="18" height="16" rx="4"/>
</mask>
<rect x="52" y="118" width="18" height="16" rx="4" fill="#C4C4C4" stroke="#8A7171" stroke-width="10" mask="url(#path-5-inside-4_39_5)"/>
<mask id="path-6-inside-5_39_5" fill="white">
<rect x="72" y="118" width="18" height="16" rx="4"/>
</mask>
<rect x="72" y="118" width="18" height="16" rx="4" fill="#C4C4C4" stroke="#8A7171" stroke-width="10" mask="url(#path-6-inside-5_39_5)"/>
<mask id="path-7-inside-6_39_5" fill="white">
<rect x="179" y="118" width="18" height="16" rx="4"/>
</mask>
<rect x="179" y="118" width="18" height="16" rx="4" fill="#C4C4C4" stroke="#8A7171" stroke-width="10" mask="url(#path-7-inside-6_39_5)"/>
<mask id="path-8-inside-7_39_5" fill="white">
<rect x="199" y="118" width="18" height="16" rx="4"/>
</mask>
<rect x="199" y="118" width="18" height="16" rx="4" fill="#C4C4C4" stroke="#8A7171" stroke-width="10" mask="url(#path-8-inside-7_39_5)"/>
<mask id="path-9-inside-8_39_5" fill="white">
<rect x="219" y="118" width="18" height="16" rx="4"/>
</mask>
<rect x="219" y="118" width="18" height="16" rx="4" fill="#C4C4C4" stroke="#8A7171" stroke-width="10" mask="url(#path-9-inside-8_39_5)"/>
<mask id="path-10-inside-9_39_5" fill="white">
<rect x="239" y="118" width="18" height="16" rx="4"/>
</mask>
<rect x="239" y="118" width="18" height="16" rx="4" fill="#C4C4C4" stroke="#8A7171" stroke-width="10" mask="url(#path-10-inside-9_39_5)"/>
<mask id="path-11-inside-10_39_5" fill="white">
<rect x="259" y="118" width="18" height="16" rx="4"/>
</mask>
<rect x="259" y="118" width="18" height="16" rx="4" fill="#C4C4C4" stroke="#8A7171" stroke-width="10" mask="url(#path-11-inside-10_39_5)"/>
<mask id="path-12-inside-11_39_5" fill="white">
<rect x="286" y="118" width="18" height="16" rx="4"/>
</mask>
<rect x="286" y="118" width="18" height="16" rx="4" fill="#C4C4C4" stroke="#8A7171" stroke-width="10" mask="url(#path-12-inside-11_39_5)"/>
<mask id="path-13-inside-12_39_5" fill="white">
<rect x="306" y="118" width="18" height="16" rx="4"/>
</mask>
<rect x="306" y="118" width="18" height="16" rx="4" fill="#C4C4C4" stroke="#8A7171" stroke-width="10" mask="url(#path-13-inside-12_39_5)"/>
<mask id="path-14-inside-13_39_5" fill="white">
<rect x="326" y="118" width="18" height="16" rx="4"/>
</mask>
<rect x="326" y="118" width="18" height="16" rx="4" fill="#C4C4C4" stroke="#8A7171" stroke-width="10" mask="url(#path-14-inside-13_39_5)"/>
<mask id="path-15-inside-14_39_5" fill="white">
<rect x="92" y="118" width="85" height="16" rx="4"/>
</mask>
<rect x="92" y="118" width="85" height="16" rx="4" fill="#C4C4C4" stroke="#8A7171" stroke-width="10" mask="url(#path-15-inside-14_39_5)"/>
<rect x="2.5" y="126.5" width="353" height="14" rx="3.5" fill="#C4C4C4" stroke="#8A7171" stroke-width="5"/>
</svg>
