<svg width="44" height="55" viewBox="0 0 44 55" fill="none" xmlns="http://www.w3.org/2000/svg">
<path d="M5.63208 8.12198C0.654734 10.2705 9 22.5 11.076 26.2873C2.97528 30.5599 3.46308 56.0732 27.0328 51.2699C50.6025 46.4666 37.9706 22.6015 31.6412 21.9019C33.7759 9.77974 33.6638 4.1978 28.6235 3.21918C23.5833 2.24057 23.1003 9.00435 23.2521 19.9463C20.4794 19.6938 19.2064 20.115 17.1288 21.2521C13.9364 9.0807 10.6094 5.97349 5.63208 8.12198Z" fill="white" stroke="#8A7171" stroke-width="5" stroke-linecap="round"/>
<circle cx="12.9374" cy="37.8484" r="1.53572" transform="rotate(-12.0377 12.9374 37.8484)" fill="#8A7171"/>
<circle cx="12.9374" cy="37.8484" r="1.53572" transform="rotate(-12.0377 12.9374 37.8484)" fill="#8A7171"/>
<circle cx="34.658" cy="33.2167" r="1.53572" transform="rotate(-12.0377 34.658 33.2167)" fill="#8A7171"/>
<circle cx="34.658" cy="33.2167" r="1.53572" transform="rotate(-12.0377 34.658 33.2167)" fill="#8A7171"/>
<circle cx="24.6846" cy="39.6918" r="1.53572" transform="rotate(-12.0377 24.6846 39.6918)" fill="#8A7171"/>
<circle cx="24.6846" cy="39.6918" r="1.53572" transform="rotate(-12.0377 24.6846 39.6918)" fill="#8A7171"/>
<line x1="23.0805" y1="37.0287" x2="24.881" y2="36.5794" stroke="#8A7171" stroke-width="5" stroke-linecap="round"/>
</svg>
