<svg width="56" height="56" viewBox="0 0 56 56" fill="none" xmlns="http://www.w3.org/2000/svg">
<path d="M28 0C12.537 0 0 12.537 0 28C0 41.1203 9.03467 52.0987 21.2147 55.1367C21.084 54.7587 21 54.32 21 53.7763V48.9907C19.8637 48.9907 17.9597 48.9907 17.4813 48.9907C15.5657 48.9907 13.8623 48.167 13.0363 46.6363C12.1193 44.9353 11.9607 42.3337 9.688 40.7423C9.01367 40.2127 9.527 39.6083 10.304 39.69C11.739 40.096 12.929 41.0807 14.049 42.5413C15.1643 44.0043 15.6893 44.3357 17.773 44.3357C18.7833 44.3357 20.2953 44.2773 21.7187 44.0533C22.484 42.1097 23.807 40.32 25.424 39.4753C16.1 38.5163 11.6503 33.8777 11.6503 27.58C11.6503 24.8687 12.8053 22.246 14.7677 20.0363C14.1237 17.843 13.314 13.37 15.015 11.6667C19.2103 11.6667 21.7467 14.3873 22.3557 15.1223C24.4463 14.406 26.7423 14 29.155 14C31.5723 14 33.8777 14.406 35.973 15.127C36.575 14.3967 39.1137 11.6667 43.3183 11.6667C45.0263 13.3723 44.2073 17.864 43.5563 20.0527C45.507 22.2577 46.655 24.8733 46.655 27.58C46.655 33.873 42.2123 38.5093 32.9023 39.473C35.4643 40.81 37.3333 44.5667 37.3333 47.397V53.7763C37.3333 54.019 37.2797 54.194 37.2517 54.4017C48.1623 50.5773 56 40.2173 56 28C56 12.537 43.463 0 28 0Z" fill="#EF9EA4"/>
</svg>
