<svg width="52" height="52" viewBox="0 0 52 52" fill="none" xmlns="http://www.w3.org/2000/svg">
<path d="M47 0.333252H4.99998C2.42165 0.333252 0.333313 2.42159 0.333313 4.99992V46.9999C0.333313 49.5783 2.42165 51.6666 4.99998 51.6666H47C49.5783 51.6666 51.6666 49.5783 51.6666 46.9999V4.99992C51.6666 2.42159 49.5783 0.333252 47 0.333252ZM16.5593 42.3333H9.67598V20.1853H16.5593V42.3333ZM13.0476 17.0189C10.8286 17.0189 9.03431 15.2199 9.03431 13.0056C9.03431 10.7913 10.831 8.99459 13.0476 8.99459C15.2596 8.99459 17.0586 10.7936 17.0586 13.0056C17.0586 15.2199 15.2596 17.0189 13.0476 17.0189ZM42.3426 42.3333H35.464V31.5626C35.464 28.9936 35.4173 25.6896 31.887 25.6896C28.3053 25.6896 27.7546 28.4873 27.7546 31.3759V42.3333H20.876V20.1853H27.4793V23.2116H27.5726C28.492 21.4709 30.7366 19.6346 34.085 19.6346C41.0546 19.6346 42.3426 24.2219 42.3426 30.1859V42.3333V42.3333Z" fill="#EF9EA4"/>
</svg>
