<svg width="1187" height="500" viewBox="0 0 1187 500" fill="none" xmlns="http://www.w3.org/2000/svg">
<path d="M130.175 64.4061L104.907 56.4574C102.972 55.8656 101.914 54.6184 101.732 52.7156C101.559 50.8939 102.366 49.5097 104.155 48.5631L127.462 35.9261C128.278 35.4807 129.004 35.3911 129.642 35.6571C130.321 35.9192 130.815 36.3829 131.123 37.0479C131.428 37.6725 131.491 38.3405 131.314 39.0519C131.177 39.7594 130.701 40.3358 129.885 40.7811L108.782 52.1054L131.644 59.2416C132.529 59.5249 133.105 60.0011 133.373 60.67C133.678 61.2946 133.741 61.9626 133.564 62.6739C133.383 63.3448 132.984 63.873 132.367 64.2586C131.791 64.6403 131.06 64.6895 130.175 64.4061ZM142.163 68.2888C141.973 69.2874 141.506 69.965 140.764 70.3217C140.066 70.7149 139.321 70.8268 138.529 70.6571C137.781 70.5241 137.173 70.153 136.707 69.5439C136.2 68.9386 136.06 68.1144 136.288 67.0715L146.168 22.1954C146.399 21.1929 146.863 20.495 147.561 20.1018C148.259 19.7085 148.984 19.5986 149.736 19.7721C150.524 19.9012 151.154 20.2906 151.624 20.9403C152.131 21.5456 152.269 22.3495 152.038 23.3519L142.163 68.2888ZM161.636 61.4092C160.82 61.8546 160.073 61.9462 159.395 61.684C158.757 61.418 158.285 60.9727 157.981 60.3481C157.672 59.683 157.588 59.0169 157.729 58.3499C157.907 57.6386 158.403 57.0602 159.218 56.6149L180.322 45.2907L157.46 38.1545C156.575 37.8711 155.978 37.3969 155.67 36.7318C155.402 36.0628 155.359 35.3929 155.54 34.7221C155.717 34.0107 156.094 33.4642 156.67 33.0825C157.287 32.6969 158.038 32.6458 158.923 32.9292L184.196 40.9386C186.132 41.5304 187.186 42.7372 187.36 44.5589C187.541 46.4617 186.737 47.8863 184.948 48.8329L161.636 61.4092Z" fill="#87979F"/>
<path d="M1016.55 121.476L993.895 107.752C992.156 106.717 991.424 105.254 991.7 103.363C991.964 101.552 993.077 100.4 995.04 99.9052L1020.68 93.1671C1021.58 92.9282 1022.31 93.0138 1022.86 93.4238C1023.46 93.8397 1023.83 94.4073 1023.97 95.1266C1024.12 95.8057 1024.02 96.4697 1023.68 97.1185C1023.38 97.7732 1022.78 98.22 1021.88 98.4589L998.693 104.445L1019.2 116.809C1020 117.294 1020.44 117.893 1020.54 118.607C1020.69 119.286 1020.6 119.95 1020.25 120.599C1019.92 121.207 1019.41 121.626 1018.71 121.854C1018.06 122.088 1017.34 121.962 1016.55 121.476ZM1037.4 128.402C1034.82 128.027 1032.64 127.071 1030.85 125.536C1029.1 124.007 1027.85 122.016 1027.1 119.564C1026.35 117.071 1026.21 114.255 1026.67 111.117C1027.13 107.938 1028.07 105.301 1029.49 103.206C1030.91 101.071 1032.68 99.5203 1034.79 98.5547C1036.94 97.5949 1039.31 97.303 1041.88 97.6788C1043.98 97.9841 1045.8 98.7229 1047.35 99.895C1048.91 101.067 1050 102.48 1050.62 104.132L1052.69 89.9472C1053.06 87.412 1054.49 86.3265 1056.99 86.6905C1059.52 87.0605 1060.61 88.513 1060.24 91.0482L1055 126.902C1054.63 129.478 1053.19 130.584 1050.7 130.219C1048.2 129.855 1047.14 128.386 1047.52 125.81L1047.7 124.543C1046.62 126.029 1045.17 127.132 1043.34 127.851C1041.51 128.53 1039.53 128.714 1037.4 128.402ZM1040.35 122.976C1042.6 123.305 1044.53 122.765 1046.13 121.355C1047.74 119.905 1048.78 117.59 1049.24 114.411C1049.71 111.192 1049.38 108.698 1048.24 106.928C1047.11 105.119 1045.41 104.05 1043.16 103.721C1040.91 103.393 1038.98 103.933 1037.37 105.343C1035.78 106.713 1034.74 109.007 1034.27 112.227C1033.81 115.406 1034.14 117.92 1035.27 119.769C1036.4 121.579 1038.1 122.648 1040.35 122.976ZM1071.26 96.4179C1069.86 96.2124 1068.8 95.7088 1068.09 94.9073C1067.43 94.0714 1067.2 93.0297 1067.38 91.7823C1067.57 90.4946 1068.09 89.5645 1068.96 88.992C1069.86 88.4253 1071.02 88.2448 1072.43 88.4503C1075.4 88.8848 1076.7 90.43 1076.31 93.0859C1075.92 95.7417 1074.24 96.8524 1071.26 96.4179ZM1066.01 132.393C1064.81 132.217 1063.93 131.72 1063.4 130.901C1062.86 130.083 1062.68 129.03 1062.87 127.742L1066.1 105.59C1066.5 102.854 1067.95 101.667 1070.44 102.031C1072.98 102.401 1074.05 103.955 1073.65 106.691L1070.42 128.843C1070.23 130.131 1069.76 131.09 1069.01 131.72C1068.26 132.351 1067.26 132.575 1066.01 132.393ZM1089.6 135.896C1087.59 135.603 1086.25 134.319 1085.6 132.045L1079.25 108.372C1078.88 106.962 1079.03 105.792 1079.7 104.862C1080.41 103.938 1081.59 103.597 1083.24 103.837C1084.17 103.972 1084.88 104.302 1085.38 104.827C1085.88 105.312 1086.27 106.17 1086.54 107.401L1091.15 126.567L1101.28 109.49C1101.89 108.428 1102.5 107.737 1103.13 107.417C1103.79 107.062 1104.63 106.958 1105.64 107.105C1106.92 107.293 1107.76 107.928 1108.13 109.011C1108.51 110.093 1108.32 111.237 1107.57 112.442L1094.53 133.349C1093.34 135.352 1091.69 136.202 1089.6 135.896ZM1112.31 135.45C1111.41 135.689 1110.66 135.6 1110.07 135.184C1109.51 134.774 1109.16 134.23 1109.01 133.551C1108.87 132.831 1108.95 132.164 1109.24 131.55C1109.58 130.901 1110.2 130.457 1111.1 130.218L1134.29 124.232L1113.78 111.869C1112.99 111.383 1112.52 110.781 1112.38 110.061C1112.28 109.348 1112.39 108.687 1112.73 108.078C1113.07 107.429 1113.57 106.988 1114.22 106.754C1114.91 106.526 1115.65 106.655 1116.44 107.141L1139.09 120.925C1140.83 121.96 1141.56 123.383 1141.3 125.193C1141.02 127.085 1139.91 128.278 1137.94 128.772L1112.31 135.45Z" fill="#87979F"/>
<path d="M32.3307 394.706L8.68054 382.777C6.86617 381.88 6.02337 380.478 6.15212 378.571C6.2754 376.745 7.29627 375.51 9.21474 374.865L34.2579 366.162C35.1346 365.855 35.8663 365.884 36.453 366.249C37.0803 366.618 37.4923 367.155 37.6892 367.861C37.8888 368.527 37.8436 369.196 37.5536 369.87C37.3042 370.546 36.7411 371.038 35.8644 371.345L13.2079 379.109L34.6152 389.847C35.4426 390.27 35.9344 390.833 36.0907 391.536C36.2904 392.202 36.2452 392.871 35.9551 393.545C35.6679 394.177 35.1887 394.634 34.5176 394.915C33.887 395.198 33.1581 395.129 32.3307 394.706ZM45.9935 399.358C43.4779 399.188 42.3077 397.805 42.4831 395.208L44.9239 359.057C45.0965 356.5 46.4406 355.307 48.9562 355.477C51.5124 355.65 52.7042 357.014 52.5316 359.57L51.5783 373.69C52.7022 372.136 54.1436 371.01 55.9026 370.314C57.6642 369.577 59.5797 369.278 61.649 369.418C68.6683 369.892 71.9027 374.206 71.352 382.362L70.3576 397.09C70.1823 399.687 68.8368 400.9 66.3212 400.731C63.765 400.558 62.5746 399.173 62.7499 396.577L63.7197 382.213C63.8759 379.901 63.5432 378.187 62.7218 377.071C61.941 375.959 60.6376 375.341 58.8118 375.218C56.5802 375.067 54.747 375.657 53.3122 376.986C51.9207 378.278 51.1468 380.08 50.9907 382.393L50.0908 395.722C49.9154 398.319 48.5497 399.531 45.9935 399.358ZM91.4464 402.549C83.575 402.018 79.9023 397.857 80.4282 390.067L81.3035 377.103L78.1387 376.89C76.11 376.753 75.16 375.731 75.2888 373.824C75.4175 371.917 76.4963 371.032 78.525 371.169L81.6898 371.382L82.0637 365.844C82.2363 363.288 83.6007 362.096 86.1568 362.268C88.6725 362.438 89.844 363.801 89.6714 366.357L89.2974 371.896L95.7488 372.331C97.7775 372.468 98.7274 373.49 98.5987 375.397C98.4699 377.304 97.3912 378.189 95.3625 378.052L88.9112 377.617L88.0647 390.154C87.9332 392.102 88.2606 393.591 89.0469 394.623C89.8332 395.654 91.1799 396.234 93.0869 396.363C93.7766 396.409 94.3894 396.39 94.925 396.303C95.4607 396.217 95.9328 396.168 96.3413 396.154C96.8309 396.147 97.2257 396.336 97.5256 396.724C97.8283 397.07 97.9441 397.771 97.8728 398.826C97.818 399.637 97.6267 400.358 97.2989 400.988C97.0143 401.58 96.519 401.975 95.8128 402.172C95.2743 402.298 94.575 402.394 93.7147 402.458C92.8517 402.563 92.0956 402.593 91.4464 402.549ZM105.075 403.347C102.559 403.177 101.389 401.794 101.564 399.197L103.118 376.192C103.29 373.635 104.614 372.441 107.089 372.608C109.564 372.775 110.715 374.137 110.543 376.693L110.461 377.91C111.463 376.347 112.785 375.173 114.428 374.387C116.073 373.561 117.931 373.218 120 373.357C124.463 373.659 127.253 375.804 128.369 379.792C129.426 378.029 130.861 376.699 132.674 375.803C134.49 374.866 136.514 374.472 138.745 374.623C145.44 375.075 148.512 379.379 147.961 387.534L146.967 402.263C146.792 404.859 145.426 406.072 142.87 405.899C140.354 405.729 139.184 404.346 139.359 401.749L140.333 387.325C140.487 385.053 140.213 383.363 139.514 382.256C138.855 381.152 137.632 380.54 135.847 380.419C133.859 380.285 132.249 380.889 131.017 382.233C129.788 383.536 129.09 385.424 128.923 387.9L128.039 400.985C127.864 403.581 126.518 404.795 124.003 404.625C121.446 404.452 120.256 403.068 120.431 400.471L121.405 386.047C121.559 383.775 121.286 382.085 120.586 380.978C119.927 379.874 118.725 379.263 116.98 379.145C114.992 379.011 113.382 379.615 112.15 380.959C110.921 382.262 110.223 384.151 110.055 386.626L109.172 399.711C108.997 402.308 107.631 403.52 105.075 403.347ZM164.708 407.496C157.932 407.038 154.8 403.016 155.312 395.428L157.256 366.641C157.429 364.085 158.773 362.892 161.288 363.061C163.845 363.234 165.036 364.598 164.864 367.155L162.945 395.577C162.698 399.229 164.096 401.157 167.14 401.363C167.464 401.384 167.768 401.405 168.052 401.424C168.339 401.403 168.626 401.381 168.913 401.36C169.486 401.317 169.861 401.506 170.036 401.925C170.214 402.304 170.264 403.082 170.184 404.258C170.116 405.273 169.86 406.05 169.416 406.591C168.971 407.131 168.279 407.431 167.337 407.49C166.477 407.554 165.601 407.556 164.708 407.496ZM176.551 404.444C175.674 404.751 174.922 404.721 174.295 404.352C173.708 403.987 173.315 403.471 173.115 402.805C172.919 402.099 172.943 401.428 173.19 400.793C173.48 400.12 174.064 399.629 174.94 399.321L197.597 391.558L176.189 380.82C175.362 380.397 174.85 379.832 174.653 379.126C174.497 378.423 174.562 377.755 174.849 377.122C175.14 376.449 175.6 375.97 176.23 375.687C176.901 375.406 177.651 375.477 178.478 375.9L202.124 387.89C203.938 388.787 204.784 390.148 204.661 391.974C204.532 393.881 203.508 395.157 201.59 395.802L176.551 404.444Z" fill="#87979F"/>
<rect x="564.5" y="355.5" width="72" height="92" fill="#C4C4C4" stroke="#8A7171" stroke-width="5"/>
<rect x="248.5" y="19.5" width="705" height="350" rx="13.5" fill="#C4C4C4" stroke="#8A7171" stroke-width="5"/>
<rect x="289.5" y="44.5" width="625" height="302" rx="13.5" fill="#FFDEE1" stroke="#8A7171" stroke-width="5"/>
<path d="M386.475 149.42C384.835 149.42 384.015 148.56 384.015 146.84V108.86C384.015 107.14 384.835 106.28 386.475 106.28C388.115 106.28 388.935 107.14 388.935 108.86V125.42H414.315V108.86C414.315 107.14 415.135 106.28 416.775 106.28C418.415 106.28 419.235 107.14 419.235 108.86V146.84C419.235 148.56 418.415 149.42 416.775 149.42C415.135 149.42 414.315 148.56 414.315 146.84V129.68H388.935V146.84C388.935 148.56 388.115 149.42 386.475 149.42ZM431.4 112.82C429.28 112.82 428.22 111.82 428.22 109.82C428.22 107.86 429.28 106.88 431.4 106.88C433.52 106.88 434.58 107.86 434.58 109.82C434.58 111.82 433.52 112.82 431.4 112.82ZM431.4 149.3C429.8 149.3 429 148.42 429 146.66V122.12C429 120.4 429.8 119.54 431.4 119.54C433.04 119.54 433.86 120.4 433.86 122.12V146.66C433.86 148.42 433.04 149.3 431.4 149.3ZM475.186 149.42C473.546 149.42 472.726 148.56 472.726 146.84V108.86C472.726 107.14 473.546 106.28 475.186 106.28C476.826 106.28 477.646 107.14 477.646 108.86V146.84C477.646 148.56 476.826 149.42 475.186 149.42ZM489.576 123.74C489.136 123.74 488.736 123.58 488.376 123.26C488.056 122.9 487.856 122.42 487.776 121.82L486.936 109.22C486.856 108.38 487.056 107.68 487.536 107.12C488.056 106.56 488.736 106.28 489.576 106.28C490.376 106.28 491.016 106.56 491.496 107.12C492.016 107.68 492.256 108.38 492.216 109.22L491.376 121.82C491.336 122.42 491.136 122.9 490.776 123.26C490.456 123.58 490.056 123.74 489.576 123.74ZM503.238 149.42C501.638 149.42 500.838 148.58 500.838 146.9V121.88C500.838 120.24 501.618 119.42 503.178 119.42C504.778 119.42 505.578 120.24 505.578 121.88V124.76C506.458 123 507.678 121.66 509.238 120.74C510.798 119.78 512.618 119.3 514.698 119.3C519.258 119.3 522.178 121.28 523.458 125.24C524.338 123.4 525.638 121.96 527.358 120.92C529.078 119.84 531.058 119.3 533.298 119.3C539.778 119.3 543.018 123.14 543.018 130.82V146.9C543.018 148.58 542.198 149.42 540.558 149.42C538.958 149.42 538.158 148.58 538.158 146.9V131.06C538.158 128.38 537.678 126.42 536.718 125.18C535.798 123.9 534.258 123.26 532.098 123.26C529.738 123.26 527.858 124.1 526.458 125.78C525.058 127.46 524.358 129.7 524.358 132.5V146.9C524.358 148.58 523.538 149.42 521.898 149.42C520.298 149.42 519.498 148.58 519.498 146.9V131.06C519.498 128.38 519.018 126.42 518.058 125.18C517.138 123.9 515.598 123.26 513.438 123.26C511.038 123.26 509.138 124.1 507.738 125.78C506.378 127.46 505.698 129.7 505.698 132.5V146.9C505.698 148.58 504.878 149.42 503.238 149.42ZM822.993 154.7C822.433 155.38 821.873 155.68 821.313 155.6C820.753 155.56 820.373 155.28 820.173 154.76C819.973 154.24 820.133 153.62 820.653 152.9C821.133 152.3 821.493 151.68 821.733 151.04C821.973 150.4 822.153 149.8 822.273 149.24C821.313 149.16 820.553 148.82 819.993 148.22C819.433 147.62 819.153 146.86 819.153 145.94C819.153 144.98 819.433 144.2 819.993 143.6C820.593 142.96 821.373 142.64 822.333 142.64C823.373 142.64 824.193 143 824.793 143.72C825.393 144.4 825.693 145.4 825.693 146.72C825.693 147.96 825.493 149.28 825.093 150.68C824.693 152.08 823.993 153.42 822.993 154.7ZM485.768 231C483.968 231 483.068 230.1 483.068 228.3V191.4C483.068 189.6 483.968 188.7 485.768 188.7H508.088C509.488 188.7 510.188 189.38 510.188 190.74C510.188 192.14 509.488 192.84 508.088 192.84H487.868V207.48H506.828C508.228 207.48 508.928 208.16 508.928 209.52C508.928 210.92 508.228 211.62 506.828 211.62H487.868V226.86H508.088C509.488 226.86 510.188 227.54 510.188 228.9C510.188 230.3 509.488 231 508.088 231H485.768ZM519.788 231.42C518.188 231.42 517.388 230.58 517.388 228.9V203.88C517.388 202.24 518.168 201.42 519.728 201.42C521.328 201.42 522.128 202.24 522.128 203.88V206.82C523.088 204.98 524.448 203.6 526.208 202.68C527.968 201.76 529.948 201.3 532.148 201.3C539.068 201.3 542.528 205.14 542.528 212.82V228.9C542.528 230.58 541.728 231.42 540.128 231.42C538.488 231.42 537.668 230.58 537.668 228.9V213.12C537.668 210.4 537.128 208.42 536.048 207.18C535.008 205.9 533.328 205.26 531.008 205.26C528.328 205.26 526.188 206.1 524.588 207.78C523.028 209.42 522.248 211.62 522.248 214.38V228.9C522.248 230.58 521.428 231.42 519.788 231.42ZM562.59 231.54C559.99 231.54 557.71 230.92 555.75 229.68C553.83 228.44 552.33 226.7 551.25 224.46C550.21 222.18 549.69 219.5 549.69 216.42C549.69 213.3 550.21 210.62 551.25 208.38C552.33 206.1 553.83 204.36 555.75 203.16C557.71 201.92 559.99 201.3 562.59 201.3C564.87 201.3 566.87 201.8 568.59 202.8C570.35 203.8 571.65 205.18 572.49 206.94V190.74C572.49 189.1 573.31 188.28 574.95 188.28C576.55 188.28 577.35 189.1 577.35 190.74V228.9C577.35 230.58 576.55 231.42 574.95 231.42C573.35 231.42 572.55 230.58 572.55 228.9V225.78C571.67 227.58 570.35 229 568.59 230.04C566.87 231.04 564.87 231.54 562.59 231.54ZM563.61 227.64C566.33 227.64 568.51 226.68 570.15 224.76C571.79 222.8 572.61 220.02 572.61 216.42C572.61 212.78 571.79 210 570.15 208.08C568.51 206.16 566.33 205.2 563.61 205.2C560.85 205.2 558.65 206.16 557.01 208.08C555.41 210 554.61 212.78 554.61 216.42C554.61 220.02 555.41 222.8 557.01 224.76C558.65 226.68 560.85 227.64 563.61 227.64ZM605.299 231C603.499 231 602.599 230.1 602.599 228.3V191.4C602.599 189.6 603.499 188.7 605.299 188.7H616.879C623.719 188.7 628.999 190.52 632.719 194.16C636.439 197.76 638.299 202.98 638.299 209.82C638.299 216.66 636.439 221.9 632.719 225.54C628.999 229.18 623.719 231 616.879 231H605.299ZM607.519 226.8H616.519C627.559 226.8 633.079 221.14 633.079 209.82C633.079 198.54 627.559 192.9 616.519 192.9H607.519V226.8ZM659.61 231.54C655.01 231.54 651.37 230.2 648.69 227.52C646.01 224.8 644.67 221.12 644.67 216.48C644.67 213.48 645.27 210.84 646.47 208.56C647.67 206.24 649.31 204.46 651.39 203.22C653.51 201.94 655.95 201.3 658.71 201.3C662.67 201.3 665.77 202.58 668.01 205.14C670.25 207.66 671.37 211.14 671.37 215.58C671.37 216.82 670.67 217.44 669.27 217.44H649.41C649.57 220.76 650.53 223.3 652.29 225.06C654.05 226.78 656.49 227.64 659.61 227.64C660.93 227.64 662.27 227.48 663.63 227.16C664.99 226.8 666.31 226.18 667.59 225.3C668.51 224.7 669.27 224.58 669.87 224.94C670.51 225.3 670.83 225.86 670.83 226.62C670.87 227.34 670.47 227.98 669.63 228.54C668.31 229.5 666.73 230.24 664.89 230.76C663.09 231.28 661.33 231.54 659.61 231.54ZM658.83 204.9C656.07 204.9 653.89 205.76 652.29 207.48C650.69 209.2 649.75 211.46 649.47 214.26H667.17C667.05 211.3 666.27 209 664.83 207.36C663.43 205.72 661.43 204.9 658.83 204.9ZM688.912 231.42C687.512 231.42 686.472 230.64 685.792 229.08L675.412 204.84C675.012 203.92 674.992 203.12 675.352 202.44C675.712 201.76 676.432 201.42 677.512 201.42C678.632 201.42 679.452 202.06 679.972 203.34L689.032 225.48L698.212 203.34C698.492 202.62 698.812 202.12 699.172 201.84C699.532 201.56 700.052 201.42 700.732 201.42C701.652 201.42 702.272 201.76 702.592 202.44C702.912 203.12 702.892 203.9 702.532 204.78L692.032 229.08C691.392 230.64 690.352 231.42 688.912 231.42ZM721.661 231.54C717.061 231.54 713.421 230.2 710.741 227.52C708.061 224.8 706.721 221.12 706.721 216.48C706.721 213.48 707.321 210.84 708.521 208.56C709.721 206.24 711.361 204.46 713.441 203.22C715.561 201.94 718.001 201.3 720.761 201.3C724.721 201.3 727.821 202.58 730.061 205.14C732.301 207.66 733.421 211.14 733.421 215.58C733.421 216.82 732.721 217.44 731.321 217.44H711.461C711.621 220.76 712.581 223.3 714.341 225.06C716.101 226.78 718.541 227.64 721.661 227.64C722.981 227.64 724.321 227.48 725.681 227.16C727.041 226.8 728.361 226.18 729.641 225.3C730.561 224.7 731.321 224.58 731.921 224.94C732.561 225.3 732.881 225.86 732.881 226.62C732.921 227.34 732.521 227.98 731.681 228.54C730.361 229.5 728.781 230.24 726.941 230.76C725.141 231.28 723.381 231.54 721.661 231.54ZM720.881 204.9C718.121 204.9 715.941 205.76 714.341 207.48C712.741 209.2 711.801 211.46 711.521 214.26H729.221C729.101 211.3 728.321 209 726.881 207.36C725.481 205.72 723.481 204.9 720.881 204.9ZM749.335 231.54C746.455 231.54 744.255 230.68 742.735 228.96C741.215 227.2 740.455 224.66 740.455 221.34V190.74C740.455 189.1 741.255 188.28 742.855 188.28C744.495 188.28 745.315 189.1 745.315 190.74V220.98C745.315 225.26 747.015 227.4 750.415 227.4C750.775 227.4 751.095 227.38 751.375 227.34C751.655 227.3 751.935 227.28 752.215 227.28C752.655 227.24 752.955 227.34 753.115 227.58C753.315 227.82 753.415 228.3 753.415 229.02C753.415 230.38 752.735 231.16 751.375 231.36C751.055 231.44 750.715 231.48 750.355 231.48C749.995 231.52 749.655 231.54 749.335 231.54ZM770.036 231.54C767.196 231.54 764.736 230.92 762.656 229.68C760.576 228.44 758.956 226.7 757.796 224.46C756.676 222.18 756.116 219.5 756.116 216.42C756.116 213.34 756.676 210.68 757.796 208.44C758.956 206.16 760.576 204.4 762.656 203.16C764.736 201.92 767.196 201.3 770.036 201.3C772.836 201.3 775.276 201.92 777.356 203.16C779.476 204.4 781.096 206.16 782.216 208.44C783.376 210.68 783.956 213.34 783.956 216.42C783.956 219.5 783.376 222.18 782.216 224.46C781.096 226.7 779.476 228.44 777.356 229.68C775.276 230.92 772.836 231.54 770.036 231.54ZM770.036 227.64C772.756 227.64 774.936 226.68 776.576 224.76C778.216 222.8 779.036 220.02 779.036 216.42C779.036 212.78 778.216 210 776.576 208.08C774.936 206.16 772.756 205.2 770.036 205.2C767.276 205.2 765.076 206.16 763.436 208.08C761.836 210 761.036 212.78 761.036 216.42C761.036 220.02 761.836 222.8 763.436 224.76C765.076 226.68 767.276 227.64 770.036 227.64ZM793.655 242.22C792.055 242.22 791.255 241.4 791.255 239.76V203.88C791.255 202.24 792.035 201.42 793.595 201.42C795.235 201.42 796.055 202.24 796.055 203.88V207C796.895 205.24 798.195 203.86 799.955 202.86C801.715 201.82 803.735 201.3 806.015 201.3C808.615 201.3 810.875 201.92 812.795 203.16C814.755 204.36 816.255 206.1 817.295 208.38C818.375 210.62 818.915 213.3 818.915 216.42C818.915 219.5 818.375 222.18 817.295 224.46C816.255 226.7 814.755 228.44 812.795 229.68C810.875 230.92 808.615 231.54 806.015 231.54C803.775 231.54 801.775 231.04 800.015 230.04C798.255 229.04 796.955 227.66 796.115 225.9V239.76C796.115 241.4 795.295 242.22 793.655 242.22ZM804.995 227.64C807.715 227.64 809.895 226.68 811.535 224.76C813.175 222.8 813.995 220.02 813.995 216.42C813.995 212.78 813.175 210 811.535 208.08C809.895 206.16 807.715 205.2 804.995 205.2C802.275 205.2 800.095 206.16 798.455 208.08C796.815 210 795.995 212.78 795.995 216.42C795.995 220.02 796.815 222.8 798.455 224.76C800.095 226.68 802.275 227.64 804.995 227.64ZM839.376 231.54C834.776 231.54 831.136 230.2 828.456 227.52C825.776 224.8 824.436 221.12 824.436 216.48C824.436 213.48 825.036 210.84 826.236 208.56C827.436 206.24 829.076 204.46 831.156 203.22C833.276 201.94 835.716 201.3 838.476 201.3C842.436 201.3 845.536 202.58 847.776 205.14C850.016 207.66 851.136 211.14 851.136 215.58C851.136 216.82 850.436 217.44 849.036 217.44H829.176C829.336 220.76 830.296 223.3 832.056 225.06C833.816 226.78 836.256 227.64 839.376 227.64C840.696 227.64 842.036 227.48 843.396 227.16C844.756 226.8 846.076 226.18 847.356 225.3C848.276 224.7 849.036 224.58 849.636 224.94C850.276 225.3 850.596 225.86 850.596 226.62C850.636 227.34 850.236 227.98 849.396 228.54C848.076 229.5 846.496 230.24 844.656 230.76C842.856 231.28 841.096 231.54 839.376 231.54ZM838.596 204.9C835.836 204.9 833.656 205.76 832.056 207.48C830.456 209.2 829.516 211.46 829.236 214.26H846.936C846.816 211.3 846.036 209 844.596 207.36C843.196 205.72 841.196 204.9 838.596 204.9ZM860.629 231.42C858.989 231.42 858.169 230.58 858.169 228.9V203.88C858.169 202.24 858.949 201.42 860.509 201.42C862.109 201.42 862.909 202.24 862.909 203.88V207.06C863.709 205.22 864.949 203.82 866.629 202.86C868.309 201.86 870.309 201.32 872.629 201.24C873.909 201.12 874.589 201.76 874.669 203.16C874.789 204.56 874.069 205.34 872.509 205.5L871.549 205.62C868.789 205.86 866.689 206.74 865.249 208.26C863.809 209.74 863.089 211.78 863.089 214.38V228.9C863.089 230.58 862.269 231.42 860.629 231.42ZM880.724 231.24C879.724 231.24 878.924 230.94 878.324 230.34C877.724 229.7 877.424 228.9 877.424 227.94C877.424 226.98 877.724 226.2 878.324 225.6C878.924 224.96 879.724 224.64 880.724 224.64C881.724 224.64 882.504 224.96 883.064 225.6C883.664 226.2 883.964 226.98 883.964 227.94C883.964 228.9 883.664 229.7 883.064 230.34C882.504 230.94 881.724 231.24 880.724 231.24Z" fill="#EF9EA4"/>
<path d="M445.825 154.7C445.265 155.38 444.705 155.68 444.145 155.6C443.585 155.56 443.205 155.28 443.005 154.76C442.805 154.24 442.965 153.62 443.485 152.9C443.965 152.3 444.325 151.68 444.565 151.04C444.805 150.4 444.985 149.8 445.105 149.24C444.145 149.16 443.385 148.82 442.825 148.22C442.265 147.62 441.985 146.86 441.985 145.94C441.985 144.98 442.265 144.2 442.825 143.6C443.425 142.96 444.205 142.64 445.165 142.64C446.205 142.64 447.025 143 447.625 143.72C448.225 144.4 448.525 145.4 448.525 146.72C448.525 147.96 448.325 149.28 447.925 150.68C447.525 152.08 446.825 153.42 445.825 154.7ZM587.554 149.54C580.754 149.54 575.574 147.62 572.014 143.78C568.454 139.94 566.674 134.64 566.674 127.88C566.674 123.4 567.474 119.54 569.074 116.3C570.674 113.06 572.974 110.56 575.974 108.8C578.974 107.04 582.594 106.16 586.834 106.16C589.354 106.16 591.794 106.52 594.154 107.24C596.514 107.92 598.614 109.02 600.454 110.54C601.014 110.94 601.334 111.44 601.414 112.04C601.494 112.6 601.374 113.14 601.054 113.66C600.774 114.14 600.354 114.46 599.794 114.62C599.274 114.78 598.714 114.66 598.114 114.26C596.474 112.98 594.734 112.06 592.894 111.5C591.054 110.9 589.014 110.6 586.774 110.6C581.974 110.6 578.294 112.12 575.734 115.16C573.174 118.16 571.894 122.4 571.894 127.88C571.894 133.48 573.214 137.76 575.854 140.72C578.494 143.68 582.434 145.16 587.674 145.16C591.074 145.16 594.334 144.58 597.454 143.42V130.88H588.874C587.434 130.88 586.714 130.22 586.714 128.9C586.714 127.62 587.434 126.98 588.874 126.98H599.614C601.014 126.98 601.714 127.68 601.714 129.08V144.74C601.714 145.98 601.274 146.78 600.394 147.14C598.714 147.86 596.694 148.44 594.334 148.88C592.014 149.32 589.754 149.54 587.554 149.54ZM613.509 112.82C611.389 112.82 610.329 111.82 610.329 109.82C610.329 107.86 611.389 106.88 613.509 106.88C615.629 106.88 616.689 107.86 616.689 109.82C616.689 111.82 615.629 112.82 613.509 112.82ZM613.509 149.3C611.909 149.3 611.109 148.42 611.109 146.66V122.12C611.109 120.4 611.909 119.54 613.509 119.54C615.149 119.54 615.969 120.4 615.969 122.12V146.66C615.969 148.42 615.149 149.3 613.509 149.3ZM637.174 149.54C634.334 149.54 631.874 148.92 629.794 147.68C627.714 146.44 626.094 144.7 624.934 142.46C623.814 140.18 623.254 137.5 623.254 134.42C623.254 131.34 623.814 128.68 624.934 126.44C626.094 124.16 627.714 122.4 629.794 121.16C631.874 119.92 634.334 119.3 637.174 119.3C639.974 119.3 642.414 119.92 644.494 121.16C646.614 122.4 648.234 124.16 649.354 126.44C650.514 128.68 651.094 131.34 651.094 134.42C651.094 137.5 650.514 140.18 649.354 142.46C648.234 144.7 646.614 146.44 644.494 147.68C642.414 148.92 639.974 149.54 637.174 149.54ZM637.174 145.64C639.894 145.64 642.074 144.68 643.714 142.76C645.354 140.8 646.174 138.02 646.174 134.42C646.174 130.78 645.354 128 643.714 126.08C642.074 124.16 639.894 123.2 637.174 123.2C634.414 123.2 632.214 124.16 630.574 126.08C628.974 128 628.174 130.78 628.174 134.42C628.174 138.02 628.974 140.8 630.574 142.76C632.214 144.68 634.414 145.64 637.174 145.64ZM668.844 149.42C667.444 149.42 666.404 148.64 665.724 147.08L655.344 122.84C654.944 121.92 654.924 121.12 655.284 120.44C655.644 119.76 656.364 119.42 657.444 119.42C658.564 119.42 659.384 120.06 659.904 121.34L668.964 143.48L678.144 121.34C678.424 120.62 678.744 120.12 679.104 119.84C679.464 119.56 679.984 119.42 680.664 119.42C681.584 119.42 682.204 119.76 682.524 120.44C682.844 121.12 682.824 121.9 682.464 122.78L671.964 147.08C671.324 148.64 670.284 149.42 668.844 149.42ZM697.457 149.54C695.457 149.54 693.657 149.16 692.057 148.4C690.497 147.6 689.257 146.52 688.337 145.16C687.417 143.8 686.957 142.28 686.957 140.6C686.957 138.48 687.497 136.8 688.577 135.56C689.697 134.32 691.517 133.44 694.037 132.92C696.597 132.36 700.077 132.08 704.477 132.08H706.397V130.22C706.397 127.74 705.877 125.96 704.837 124.88C703.837 123.76 702.217 123.2 699.977 123.2C698.577 123.2 697.157 123.38 695.717 123.74C694.317 124.1 692.857 124.68 691.337 125.48C690.657 125.84 690.077 125.92 689.597 125.72C689.157 125.48 688.837 125.12 688.637 124.64C688.477 124.12 688.477 123.6 688.637 123.08C688.837 122.52 689.237 122.1 689.837 121.82C691.557 120.94 693.277 120.3 694.997 119.9C696.757 119.5 698.417 119.3 699.977 119.3C703.737 119.3 706.517 120.22 708.317 122.06C710.157 123.9 711.077 126.76 711.077 130.64V146.9C711.077 148.58 710.337 149.42 708.857 149.42C707.297 149.42 706.517 148.58 706.517 146.9V143.96C705.757 145.68 704.577 147.04 702.977 148.04C701.417 149.04 699.577 149.54 697.457 149.54ZM698.237 145.88C700.637 145.88 702.597 145.06 704.117 143.42C705.637 141.74 706.397 139.62 706.397 137.06V135.26H704.537C701.297 135.26 698.737 135.42 696.857 135.74C695.017 136.02 693.717 136.54 692.957 137.3C692.237 138.02 691.877 139.02 691.877 140.3C691.877 141.94 692.437 143.28 693.557 144.32C694.717 145.36 696.277 145.88 698.237 145.88ZM722.493 149.42C720.893 149.42 720.093 148.58 720.093 146.9V121.88C720.093 120.24 720.873 119.42 722.433 119.42C724.033 119.42 724.833 120.24 724.833 121.88V124.82C725.793 122.98 727.153 121.6 728.913 120.68C730.673 119.76 732.653 119.3 734.853 119.3C741.773 119.3 745.233 123.14 745.233 130.82V146.9C745.233 148.58 744.433 149.42 742.833 149.42C741.193 149.42 740.373 148.58 740.373 146.9V131.12C740.373 128.4 739.833 126.42 738.753 125.18C737.713 123.9 736.033 123.26 733.713 123.26C731.033 123.26 728.893 124.1 727.293 125.78C725.733 127.42 724.953 129.62 724.953 132.38V146.9C724.953 148.58 724.133 149.42 722.493 149.42ZM756.595 149.42C754.995 149.42 754.195 148.58 754.195 146.9V121.88C754.195 120.24 754.975 119.42 756.535 119.42C758.135 119.42 758.935 120.24 758.935 121.88V124.82C759.895 122.98 761.255 121.6 763.015 120.68C764.775 119.76 766.755 119.3 768.955 119.3C775.875 119.3 779.335 123.14 779.335 130.82V146.9C779.335 148.58 778.535 149.42 776.935 149.42C775.295 149.42 774.475 148.58 774.475 146.9V131.12C774.475 128.4 773.935 126.42 772.855 125.18C771.815 123.9 770.135 123.26 767.815 123.26C765.135 123.26 762.995 124.1 761.395 125.78C759.835 127.42 759.055 129.62 759.055 132.38V146.9C759.055 148.58 758.235 149.42 756.595 149.42ZM797.476 149.54C795.476 149.54 793.676 149.16 792.076 148.4C790.516 147.6 789.276 146.52 788.356 145.16C787.436 143.8 786.976 142.28 786.976 140.6C786.976 138.48 787.516 136.8 788.596 135.56C789.716 134.32 791.536 133.44 794.056 132.92C796.616 132.36 800.096 132.08 804.496 132.08H806.416V130.22C806.416 127.74 805.896 125.96 804.856 124.88C803.856 123.76 802.236 123.2 799.996 123.2C798.596 123.2 797.176 123.38 795.736 123.74C794.336 124.1 792.876 124.68 791.356 125.48C790.676 125.84 790.096 125.92 789.616 125.72C789.176 125.48 788.856 125.12 788.656 124.64C788.496 124.12 788.496 123.6 788.656 123.08C788.856 122.52 789.256 122.1 789.856 121.82C791.576 120.94 793.296 120.3 795.016 119.9C796.776 119.5 798.436 119.3 799.996 119.3C803.756 119.3 806.536 120.22 808.336 122.06C810.176 123.9 811.096 126.76 811.096 130.64V146.9C811.096 148.58 810.356 149.42 808.876 149.42C807.316 149.42 806.536 148.58 806.536 146.9V143.96C805.776 145.68 804.596 147.04 802.996 148.04C801.436 149.04 799.596 149.54 797.476 149.54ZM798.256 145.88C800.656 145.88 802.616 145.06 804.136 143.42C805.656 141.74 806.416 139.62 806.416 137.06V135.26H804.556C801.316 135.26 798.756 135.42 796.876 135.74C795.036 136.02 793.736 136.54 792.976 137.3C792.256 138.02 791.896 139.02 791.896 140.3C791.896 141.94 792.456 143.28 793.576 144.32C794.736 145.36 796.296 145.88 798.256 145.88ZM328.383 231.42C326.623 231.42 325.743 230.52 325.743 228.72V191.4C325.743 189.6 326.643 188.7 328.443 188.7H350.224C351.624 188.7 352.324 189.38 352.324 190.74C352.324 192.14 351.624 192.84 350.224 192.84H330.663V207.6H348.964C350.404 207.6 351.124 208.28 351.124 209.64C351.124 211.04 350.404 211.74 348.964 211.74H330.663V228.72C330.663 230.52 329.903 231.42 328.383 231.42ZM359.829 231.42C358.189 231.42 357.369 230.58 357.369 228.9V203.88C357.369 202.24 358.149 201.42 359.709 201.42C361.309 201.42 362.109 202.24 362.109 203.88V207.06C362.909 205.22 364.149 203.82 365.829 202.86C367.509 201.86 369.509 201.32 371.829 201.24C373.109 201.12 373.789 201.76 373.869 203.16C373.989 204.56 373.269 205.34 371.709 205.5L370.749 205.62C367.989 205.86 365.889 206.74 364.449 208.26C363.009 209.74 362.289 211.78 362.289 214.38V228.9C362.289 230.58 361.469 231.42 359.829 231.42ZM390.641 231.54C387.801 231.54 385.341 230.92 383.261 229.68C381.181 228.44 379.561 226.7 378.401 224.46C377.281 222.18 376.721 219.5 376.721 216.42C376.721 213.34 377.281 210.68 378.401 208.44C379.561 206.16 381.181 204.4 383.261 203.16C385.341 201.92 387.801 201.3 390.641 201.3C393.441 201.3 395.881 201.92 397.961 203.16C400.081 204.4 401.701 206.16 402.821 208.44C403.981 210.68 404.561 213.34 404.561 216.42C404.561 219.5 403.981 222.18 402.821 224.46C401.701 226.7 400.081 228.44 397.961 229.68C395.881 230.92 393.441 231.54 390.641 231.54ZM390.641 227.64C393.361 227.64 395.541 226.68 397.181 224.76C398.821 222.8 399.641 220.02 399.641 216.42C399.641 212.78 398.821 210 397.181 208.08C395.541 206.16 393.361 205.2 390.641 205.2C387.881 205.2 385.681 206.16 384.041 208.08C382.441 210 381.641 212.78 381.641 216.42C381.641 220.02 382.441 222.8 384.041 224.76C385.681 226.68 387.881 227.64 390.641 227.64ZM414.261 231.42C412.661 231.42 411.861 230.58 411.861 228.9V203.88C411.861 202.24 412.641 201.42 414.201 201.42C415.801 201.42 416.601 202.24 416.601 203.88V206.82C417.561 204.98 418.921 203.6 420.681 202.68C422.441 201.76 424.421 201.3 426.621 201.3C433.541 201.3 437.001 205.14 437.001 212.82V228.9C437.001 230.58 436.201 231.42 434.601 231.42C432.961 231.42 432.141 230.58 432.141 228.9V213.12C432.141 210.4 431.601 208.42 430.521 207.18C429.481 205.9 427.801 205.26 425.481 205.26C422.801 205.26 420.661 206.1 419.061 207.78C417.501 209.42 416.721 211.62 416.721 214.38V228.9C416.721 230.58 415.901 231.42 414.261 231.42ZM457.662 231.54C454.222 231.54 451.642 230.64 449.922 228.84C448.202 227 447.342 224.36 447.342 220.92V205.62H443.322C441.922 205.62 441.222 204.98 441.222 203.7C441.222 202.46 441.922 201.84 443.322 201.84H447.342V194.94C447.342 193.3 448.162 192.48 449.802 192.48C451.402 192.48 452.202 193.3 452.202 194.94V201.84H459.762C461.162 201.84 461.862 202.46 461.862 203.7C461.862 204.98 461.162 205.62 459.762 205.62H452.202V220.44C452.202 222.72 452.682 224.46 453.642 225.66C454.602 226.82 456.162 227.4 458.322 227.4C459.082 227.4 459.722 227.32 460.242 227.16C460.762 227 461.222 226.92 461.622 226.92C461.982 226.88 462.282 227 462.522 227.28C462.762 227.56 462.882 228.04 462.882 228.72C462.882 229.2 462.782 229.64 462.582 230.04C462.422 230.44 462.122 230.72 461.682 230.88C461.202 231.04 460.562 231.18 459.762 231.3C459.002 231.46 458.302 231.54 457.662 231.54Z" fill="#87979F"/>
<path d="M400.059 295.196C399.293 295.196 398.911 294.795 398.911 293.992V276.268C398.911 275.465 399.293 275.064 400.059 275.064C400.824 275.064 401.207 275.465 401.207 276.268V283.996H413.051V276.268C413.051 275.465 413.433 275.064 414.199 275.064C414.964 275.064 415.347 275.465 415.347 276.268V293.992C415.347 294.795 414.964 295.196 414.199 295.196C413.433 295.196 413.051 294.795 413.051 293.992V285.984H401.207V293.992C401.207 294.795 400.824 295.196 400.059 295.196ZM426.203 295.196C425.438 295.196 425.055 294.795 425.055 293.992V277.248H418.755C418.046 277.248 417.691 276.912 417.691 276.24C417.691 275.587 418.046 275.26 418.755 275.26H433.679C434.389 275.26 434.743 275.587 434.743 276.24C434.743 276.912 434.389 277.248 433.679 277.248H427.379V293.992C427.379 294.795 426.987 295.196 426.203 295.196ZM438.175 295.196C437.466 295.196 437.111 294.823 437.111 294.076V276.184C437.111 275.437 437.466 275.064 438.175 275.064C438.474 275.064 438.707 275.129 438.875 275.26C439.062 275.372 439.23 275.568 439.379 275.848L446.631 289.512L453.855 275.848C454.004 275.568 454.163 275.372 454.331 275.26C454.499 275.129 454.742 275.064 455.059 275.064C455.75 275.064 456.095 275.437 456.095 276.184V294.076C456.095 294.823 455.74 295.196 455.031 295.196C454.322 295.196 453.967 294.823 453.967 294.076V279.572L447.639 291.472C447.508 291.715 447.368 291.892 447.219 292.004C447.088 292.097 446.892 292.144 446.631 292.144C446.37 292.144 446.164 292.088 446.015 291.976C445.866 291.864 445.735 291.696 445.623 291.472L439.211 279.6V294.076C439.211 294.823 438.866 295.196 438.175 295.196ZM462.184 295C461.4 295 461.008 294.599 461.008 293.796V276.324C461.008 275.521 461.391 275.12 462.156 275.12C462.922 275.12 463.304 275.521 463.304 276.324V292.984H472.488C473.198 292.984 473.552 293.32 473.552 293.992C473.552 294.664 473.198 295 472.488 295H462.184ZM482.534 295.952C482.422 296.269 482.254 296.475 482.03 296.568C481.806 296.68 481.573 296.699 481.33 296.624C481.087 296.549 480.901 296.409 480.77 296.204C480.639 295.999 480.621 295.737 480.714 295.42L487.378 274.756C487.49 274.457 487.658 274.261 487.882 274.168C488.106 274.056 488.339 274.037 488.582 274.112C488.825 274.168 489.011 274.308 489.142 274.532C489.273 274.737 489.282 274.989 489.17 275.288L482.534 295.952ZM507.119 295.252C505.177 295.252 503.516 294.841 502.135 294.02C500.753 293.199 499.689 292.032 498.943 290.52C498.215 289.008 497.851 287.207 497.851 285.116C497.851 283.044 498.215 281.252 498.943 279.74C499.689 278.228 500.753 277.061 502.135 276.24C503.516 275.419 505.177 275.008 507.119 275.008C508.276 275.008 509.377 275.176 510.423 275.512C511.468 275.848 512.373 276.324 513.139 276.94C513.456 277.164 513.633 277.425 513.671 277.724C513.727 278.023 513.68 278.293 513.531 278.536C513.381 278.76 513.167 278.909 512.887 278.984C512.625 279.04 512.327 278.947 511.991 278.704C510.665 277.64 509.06 277.108 507.175 277.108C504.953 277.108 503.255 277.808 502.079 279.208C500.903 280.608 500.315 282.577 500.315 285.116C500.315 287.673 500.903 289.652 502.079 291.052C503.255 292.452 504.953 293.152 507.175 293.152C509.06 293.152 510.684 292.611 512.047 291.528C512.383 291.304 512.681 291.22 512.943 291.276C513.223 291.332 513.428 291.472 513.559 291.696C513.708 291.92 513.764 292.172 513.727 292.452C513.689 292.732 513.531 292.984 513.251 293.208C512.448 293.88 511.524 294.393 510.479 294.748C509.433 295.084 508.313 295.252 507.119 295.252ZM523.474 295.252C522.13 295.252 520.861 295.093 519.666 294.776C518.49 294.44 517.473 293.955 516.614 293.32C516.316 293.115 516.138 292.872 516.082 292.592C516.026 292.312 516.054 292.051 516.166 291.808C516.297 291.565 516.484 291.407 516.726 291.332C516.969 291.239 517.249 291.295 517.566 291.5C518.406 292.116 519.302 292.555 520.254 292.816C521.206 293.077 522.28 293.208 523.474 293.208C525.154 293.208 526.396 292.9 527.198 292.284C528.02 291.649 528.43 290.819 528.43 289.792C528.43 288.971 528.132 288.317 527.534 287.832C526.956 287.347 525.976 286.964 524.594 286.684L521.682 286.096C519.928 285.723 518.612 285.116 517.734 284.276C516.876 283.417 516.446 282.279 516.446 280.86C516.446 279.684 516.745 278.657 517.342 277.78C517.958 276.903 518.808 276.221 519.89 275.736C520.973 275.251 522.224 275.008 523.642 275.008C524.818 275.008 525.91 275.176 526.918 275.512C527.945 275.829 528.869 276.315 529.69 276.968C529.952 277.173 530.101 277.416 530.138 277.696C530.194 277.957 530.157 278.2 530.026 278.424C529.896 278.648 529.709 278.797 529.466 278.872C529.224 278.928 528.934 278.853 528.598 278.648C527.852 278.069 527.068 277.659 526.246 277.416C525.444 277.173 524.566 277.052 523.614 277.052C522.14 277.052 520.964 277.397 520.086 278.088C519.209 278.76 518.77 279.656 518.77 280.776C518.77 281.672 519.041 282.381 519.582 282.904C520.142 283.427 521.048 283.809 522.298 284.052L525.21 284.668C527.096 285.06 528.486 285.657 529.382 286.46C530.297 287.244 530.754 288.317 530.754 289.68C530.754 290.781 530.456 291.752 529.858 292.592C529.28 293.432 528.44 294.085 527.338 294.552C526.256 295.019 524.968 295.252 523.474 295.252ZM540.701 295.252C539.357 295.252 538.087 295.093 536.893 294.776C535.717 294.44 534.699 293.955 533.841 293.32C533.542 293.115 533.365 292.872 533.309 292.592C533.253 292.312 533.281 292.051 533.393 291.808C533.523 291.565 533.71 291.407 533.953 291.332C534.195 291.239 534.475 291.295 534.793 291.5C535.633 292.116 536.529 292.555 537.481 292.816C538.433 293.077 539.506 293.208 540.701 293.208C542.381 293.208 543.622 292.9 544.425 292.284C545.246 291.649 545.657 290.819 545.657 289.792C545.657 288.971 545.358 288.317 544.761 287.832C544.182 287.347 543.202 286.964 541.821 286.684L538.909 286.096C537.154 285.723 535.838 285.116 534.961 284.276C534.102 283.417 533.673 282.279 533.673 280.86C533.673 279.684 533.971 278.657 534.569 277.78C535.185 276.903 536.034 276.221 537.117 275.736C538.199 275.251 539.45 275.008 540.869 275.008C542.045 275.008 543.137 275.176 544.145 275.512C545.171 275.829 546.095 276.315 546.917 276.968C547.178 277.173 547.327 277.416 547.365 277.696C547.421 277.957 547.383 278.2 547.253 278.424C547.122 278.648 546.935 278.797 546.693 278.872C546.45 278.928 546.161 278.853 545.825 278.648C545.078 278.069 544.294 277.659 543.473 277.416C542.67 277.173 541.793 277.052 540.841 277.052C539.366 277.052 538.19 277.397 537.313 278.088C536.435 278.76 535.997 279.656 535.997 280.776C535.997 281.672 536.267 282.381 536.809 282.904C537.369 283.427 538.274 283.809 539.525 284.052L542.437 284.668C544.322 285.06 545.713 285.657 546.609 286.46C547.523 287.244 547.981 288.317 547.981 289.68C547.981 290.781 547.682 291.752 547.085 292.592C546.506 293.432 545.666 294.085 544.565 294.552C543.482 295.019 542.194 295.252 540.701 295.252ZM557.866 295.952C557.754 296.269 557.586 296.475 557.362 296.568C557.138 296.68 556.905 296.699 556.662 296.624C556.419 296.549 556.233 296.409 556.102 296.204C555.971 295.999 555.953 295.737 556.046 295.42L562.71 274.756C562.822 274.457 562.99 274.261 563.214 274.168C563.438 274.056 563.671 274.037 563.914 274.112C564.157 274.168 564.343 274.308 564.474 274.532C564.605 274.737 564.614 274.989 564.502 275.288L557.866 295.952ZM700.765 295.952C700.653 296.269 700.485 296.475 700.261 296.568C700.037 296.68 699.803 296.699 699.561 296.624C699.318 296.549 699.131 296.409 699.001 296.204C698.87 295.999 698.851 295.737 698.945 295.42L705.609 274.756C705.721 274.457 705.889 274.261 706.113 274.168C706.337 274.056 706.57 274.037 706.813 274.112C707.055 274.168 707.242 274.308 707.373 274.532C707.503 274.737 707.513 274.989 707.401 275.288L700.765 295.952ZM717.957 295.196C717.192 295.196 716.809 294.795 716.809 293.992V276.436C716.809 275.652 717.201 275.26 717.985 275.26H724.621C726.749 275.26 728.373 275.755 729.493 276.744C730.632 277.733 731.201 279.143 731.201 280.972C731.201 282.428 730.8 283.623 729.997 284.556C729.213 285.489 728.093 286.096 726.637 286.376C727.496 286.675 728.233 287.403 728.849 288.56L731.537 293.572C731.742 293.964 731.78 294.337 731.649 294.692C731.518 295.028 731.22 295.196 730.753 295.196C730.436 295.196 730.174 295.131 729.969 295C729.764 294.851 729.586 294.627 729.437 294.328L726.385 288.672C725.956 287.869 725.461 287.337 724.901 287.076C724.341 286.796 723.604 286.656 722.689 286.656H719.105V293.992C719.105 294.795 718.722 295.196 717.957 295.196ZM719.105 284.836H724.285C727.384 284.836 728.933 283.548 728.933 280.972C728.933 278.433 727.384 277.164 724.285 277.164H719.105V284.836ZM736.799 295C735.959 295 735.539 294.58 735.539 293.74V276.52C735.539 275.68 735.959 275.26 736.799 275.26H747.215C747.869 275.26 748.195 275.577 748.195 276.212C748.195 276.865 747.869 277.192 747.215 277.192H737.779V284.024H746.627C747.281 284.024 747.607 284.341 747.607 284.976C747.607 285.629 747.281 285.956 746.627 285.956H737.779V293.068H747.215C747.869 293.068 748.195 293.385 748.195 294.02C748.195 294.673 747.869 295 747.215 295H736.799ZM751.061 295.196C750.613 295.196 750.305 295.047 750.137 294.748C749.969 294.449 749.988 294.076 750.193 293.628L757.893 276.1C758.192 275.409 758.649 275.064 759.265 275.064C759.545 275.064 759.797 275.148 760.021 275.316C760.264 275.465 760.46 275.727 760.609 276.1L768.337 293.628C768.542 294.076 768.57 294.449 768.421 294.748C768.272 295.047 767.973 295.196 767.525 295.196C767.189 295.196 766.918 295.112 766.713 294.944C766.508 294.757 766.34 294.496 766.209 294.16L764.389 289.96H754.113L752.321 294.16C752.022 294.851 751.602 295.196 751.061 295.196ZM759.237 277.948L754.953 288.028H763.577L759.293 277.948H759.237ZM780.091 295.252C778.15 295.252 776.488 294.841 775.107 294.02C773.726 293.199 772.662 292.032 771.915 290.52C771.187 289.008 770.823 287.207 770.823 285.116C770.823 283.044 771.187 281.252 771.915 279.74C772.662 278.228 773.726 277.061 775.107 276.24C776.488 275.419 778.15 275.008 780.091 275.008C781.248 275.008 782.35 275.176 783.395 275.512C784.44 275.848 785.346 276.324 786.111 276.94C786.428 277.164 786.606 277.425 786.643 277.724C786.699 278.023 786.652 278.293 786.503 278.536C786.354 278.76 786.139 278.909 785.859 278.984C785.598 279.04 785.299 278.947 784.963 278.704C783.638 277.64 782.032 277.108 780.147 277.108C777.926 277.108 776.227 277.808 775.051 279.208C773.875 280.608 773.287 282.577 773.287 285.116C773.287 287.673 773.875 289.652 775.051 291.052C776.227 292.452 777.926 293.152 780.147 293.152C782.032 293.152 783.656 292.611 785.019 291.528C785.355 291.304 785.654 291.22 785.915 291.276C786.195 291.332 786.4 291.472 786.531 291.696C786.68 291.92 786.736 292.172 786.699 292.452C786.662 292.732 786.503 292.984 786.223 293.208C785.42 293.88 784.496 294.393 783.451 294.748C782.406 295.084 781.286 295.252 780.091 295.252ZM796.11 295.196C795.344 295.196 794.962 294.795 794.962 293.992V277.248H788.662C787.952 277.248 787.598 276.912 787.598 276.24C787.598 275.587 787.952 275.26 788.662 275.26H803.586C804.295 275.26 804.65 275.587 804.65 276.24C804.65 276.912 804.295 277.248 803.586 277.248H797.286V293.992C797.286 294.795 796.894 295.196 796.11 295.196Z" fill="#EF9EA4"/>
<path d="M580.295 295.252C578.951 295.252 577.681 295.093 576.487 294.776C575.311 294.44 574.293 293.955 573.435 293.32C573.136 293.115 572.959 292.872 572.903 292.592C572.847 292.312 572.875 292.051 572.987 291.808C573.117 291.565 573.304 291.407 573.547 291.332C573.789 291.239 574.069 291.295 574.387 291.5C575.227 292.116 576.123 292.555 577.075 292.816C578.027 293.077 579.1 293.208 580.295 293.208C581.975 293.208 583.216 292.9 584.019 292.284C584.84 291.649 585.251 290.819 585.251 289.792C585.251 288.971 584.952 288.317 584.355 287.832C583.776 287.347 582.796 286.964 581.415 286.684L578.503 286.096C576.748 285.723 575.432 285.116 574.555 284.276C573.696 283.417 573.267 282.279 573.267 280.86C573.267 279.684 573.565 278.657 574.163 277.78C574.779 276.903 575.628 276.221 576.711 275.736C577.793 275.251 579.044 275.008 580.463 275.008C581.639 275.008 582.731 275.176 583.739 275.512C584.765 275.829 585.689 276.315 586.511 276.968C586.772 277.173 586.921 277.416 586.959 277.696C587.015 277.957 586.977 278.2 586.847 278.424C586.716 278.648 586.529 278.797 586.287 278.872C586.044 278.928 585.755 278.853 585.419 278.648C584.672 278.069 583.888 277.659 583.067 277.416C582.264 277.173 581.387 277.052 580.435 277.052C578.96 277.052 577.784 277.397 576.907 278.088C576.029 278.76 575.591 279.656 575.591 280.776C575.591 281.672 575.861 282.381 576.403 282.904C576.963 283.427 577.868 283.809 579.119 284.052L582.031 284.668C583.916 285.06 585.307 285.657 586.203 286.46C587.117 287.244 587.575 288.317 587.575 289.68C587.575 290.781 587.276 291.752 586.679 292.592C586.1 293.432 585.26 294.085 584.159 294.552C583.076 295.019 581.788 295.252 580.295 295.252ZM590.662 295.196C590.214 295.196 589.906 295.047 589.738 294.748C589.57 294.449 589.589 294.076 589.794 293.628L597.494 276.1C597.793 275.409 598.25 275.064 598.866 275.064C599.146 275.064 599.398 275.148 599.622 275.316C599.865 275.465 600.061 275.727 600.21 276.1L607.938 293.628C608.144 294.076 608.172 294.449 608.022 294.748C607.873 295.047 607.574 295.196 607.126 295.196C606.79 295.196 606.52 295.112 606.314 294.944C606.109 294.757 605.941 294.496 605.81 294.16L603.99 289.96H593.714L591.922 294.16C591.624 294.851 591.204 295.196 590.662 295.196ZM598.838 277.948L594.554 288.028H603.178L598.894 277.948H598.838ZM617.701 295.252C616.357 295.252 615.087 295.093 613.893 294.776C612.717 294.44 611.699 293.955 610.841 293.32C610.542 293.115 610.365 292.872 610.309 292.592C610.253 292.312 610.281 292.051 610.393 291.808C610.523 291.565 610.71 291.407 610.953 291.332C611.195 291.239 611.475 291.295 611.793 291.5C612.633 292.116 613.529 292.555 614.481 292.816C615.433 293.077 616.506 293.208 617.701 293.208C619.381 293.208 620.622 292.9 621.425 292.284C622.246 291.649 622.657 290.819 622.657 289.792C622.657 288.971 622.358 288.317 621.761 287.832C621.182 287.347 620.202 286.964 618.821 286.684L615.909 286.096C614.154 285.723 612.838 285.116 611.961 284.276C611.102 283.417 610.673 282.279 610.673 280.86C610.673 279.684 610.971 278.657 611.569 277.78C612.185 276.903 613.034 276.221 614.117 275.736C615.199 275.251 616.45 275.008 617.869 275.008C619.045 275.008 620.137 275.176 621.145 275.512C622.171 275.829 623.095 276.315 623.917 276.968C624.178 277.173 624.327 277.416 624.365 277.696C624.421 277.957 624.383 278.2 624.253 278.424C624.122 278.648 623.935 278.797 623.693 278.872C623.45 278.928 623.161 278.853 622.825 278.648C622.078 278.069 621.294 277.659 620.473 277.416C619.67 277.173 618.793 277.052 617.841 277.052C616.366 277.052 615.19 277.397 614.313 278.088C613.435 278.76 612.997 279.656 612.997 280.776C612.997 281.672 613.267 282.381 613.809 282.904C614.369 283.427 615.274 283.809 616.525 284.052L619.437 284.668C621.322 285.06 622.713 285.657 623.609 286.46C624.523 287.244 624.981 288.317 624.981 289.68C624.981 290.781 624.682 291.752 624.085 292.592C623.506 293.432 622.666 294.085 621.565 294.552C620.482 295.019 619.194 295.252 617.701 295.252ZM634.927 295.252C633.583 295.252 632.314 295.093 631.119 294.776C629.943 294.44 628.926 293.955 628.067 293.32C627.769 293.115 627.591 292.872 627.535 292.592C627.479 292.312 627.507 292.051 627.619 291.808C627.75 291.565 627.937 291.407 628.179 291.332C628.422 291.239 628.702 291.295 629.019 291.5C629.859 292.116 630.755 292.555 631.707 292.816C632.659 293.077 633.733 293.208 634.927 293.208C636.607 293.208 637.849 292.9 638.651 292.284C639.473 291.649 639.883 290.819 639.883 289.792C639.883 288.971 639.585 288.317 638.987 287.832C638.409 287.347 637.429 286.964 636.047 286.684L633.135 286.096C631.381 285.723 630.065 285.116 629.187 284.276C628.329 283.417 627.899 282.279 627.899 280.86C627.899 279.684 628.198 278.657 628.795 277.78C629.411 276.903 630.261 276.221 631.343 275.736C632.426 275.251 633.677 275.008 635.095 275.008C636.271 275.008 637.363 275.176 638.371 275.512C639.398 275.829 640.322 276.315 641.143 276.968C641.405 277.173 641.554 277.416 641.591 277.696C641.647 277.957 641.61 278.2 641.479 278.424C641.349 278.648 641.162 278.797 640.919 278.872C640.677 278.928 640.387 278.853 640.051 278.648C639.305 278.069 638.521 277.659 637.699 277.416C636.897 277.173 636.019 277.052 635.067 277.052C633.593 277.052 632.417 277.397 631.539 278.088C630.662 278.76 630.223 279.656 630.223 280.776C630.223 281.672 630.494 282.381 631.035 282.904C631.595 283.427 632.501 283.809 633.751 284.052L636.663 284.668C638.549 285.06 639.939 285.657 640.835 286.46C641.75 287.244 642.207 288.317 642.207 289.68C642.207 290.781 641.909 291.752 641.311 292.592C640.733 293.432 639.893 294.085 638.791 294.552C637.709 295.019 636.421 295.252 634.927 295.252ZM652.093 295.952C651.981 296.269 651.813 296.475 651.589 296.568C651.365 296.68 651.131 296.699 650.889 296.624C650.646 296.549 650.459 296.409 650.329 296.204C650.198 295.999 650.179 295.737 650.273 295.42L656.937 274.756C657.049 274.457 657.217 274.261 657.441 274.168C657.665 274.056 657.898 274.037 658.141 274.112C658.383 274.168 658.57 274.308 658.701 274.532C658.831 274.737 658.841 274.989 658.729 275.288L652.093 295.952ZM666.485 295.168C666.13 295.187 665.86 295.093 665.673 294.888C665.468 294.683 665.365 294.431 665.365 294.132C665.365 293.908 665.44 293.712 665.589 293.544C665.72 293.357 665.934 293.245 666.233 293.208L667.101 293.152C668.053 293.077 668.781 292.751 669.285 292.172C669.789 291.575 670.041 290.763 670.041 289.736V276.24C670.041 275.456 670.424 275.064 671.189 275.064C671.954 275.064 672.337 275.456 672.337 276.24V289.764C672.337 291.388 671.917 292.657 671.077 293.572C670.237 294.468 669.014 294.972 667.409 295.084L666.485 295.168ZM683.599 295.252C682.255 295.252 680.986 295.093 679.791 294.776C678.615 294.44 677.598 293.955 676.739 293.32C676.441 293.115 676.263 292.872 676.207 292.592C676.151 292.312 676.179 292.051 676.291 291.808C676.422 291.565 676.609 291.407 676.851 291.332C677.094 291.239 677.374 291.295 677.691 291.5C678.531 292.116 679.427 292.555 680.379 292.816C681.331 293.077 682.405 293.208 683.599 293.208C685.279 293.208 686.521 292.9 687.323 292.284C688.145 291.649 688.555 290.819 688.555 289.792C688.555 288.971 688.257 288.317 687.659 287.832C687.081 287.347 686.101 286.964 684.719 286.684L681.807 286.096C680.053 285.723 678.737 285.116 677.859 284.276C677.001 283.417 676.571 282.279 676.571 280.86C676.571 279.684 676.87 278.657 677.467 277.78C678.083 276.903 678.933 276.221 680.015 275.736C681.098 275.251 682.349 275.008 683.767 275.008C684.943 275.008 686.035 275.176 687.043 275.512C688.07 275.829 688.994 276.315 689.815 276.968C690.077 277.173 690.226 277.416 690.263 277.696C690.319 277.957 690.282 278.2 690.151 278.424C690.021 278.648 689.834 278.797 689.591 278.872C689.349 278.928 689.059 278.853 688.723 278.648C687.977 278.069 687.193 277.659 686.371 277.416C685.569 277.173 684.691 277.052 683.739 277.052C682.265 277.052 681.089 277.397 680.211 278.088C679.334 278.76 678.895 279.656 678.895 280.776C678.895 281.672 679.166 282.381 679.707 282.904C680.267 283.427 681.173 283.809 682.423 284.052L685.335 284.668C687.221 285.06 688.611 285.657 689.507 286.46C690.422 287.244 690.879 288.317 690.879 289.68C690.879 290.781 690.581 291.752 689.983 292.592C689.405 293.432 688.565 294.085 687.463 294.552C686.381 295.019 685.093 295.252 683.599 295.252Z" fill="#8497FF"/>
<path d="M259.632 32.122C254.655 34.2705 263.542 51.118 265.076 50.2873C256.975 54.5599 257.463 80.0732 281.033 75.2699C304.602 70.4666 291.971 46.6015 285.641 45.9019C287.776 33.7797 287.664 28.1978 282.624 27.2192C277.583 26.2406 277.1 33.0043 277.252 43.9463C274.479 43.6938 273.206 44.115 271.129 45.2521C267.936 33.0807 264.609 29.9735 259.632 32.122Z" fill="white" stroke="#8A7171" stroke-width="5" stroke-linecap="round"/>
<circle cx="266.937" cy="61.8484" r="1.53572" transform="rotate(-12.0377 266.937 61.8484)" fill="#8A7171"/>
<circle cx="266.937" cy="61.8484" r="1.53572" transform="rotate(-12.0377 266.937 61.8484)" fill="#8A7171"/>
<circle cx="288.658" cy="57.2167" r="1.53572" transform="rotate(-12.0377 288.658 57.2167)" fill="#8A7171"/>
<circle cx="288.658" cy="57.2167" r="1.53572" transform="rotate(-12.0377 288.658 57.2167)" fill="#8A7171"/>
<circle cx="278.685" cy="63.6918" r="1.53572" transform="rotate(-12.0377 278.685 63.6918)" fill="#8A7171"/>
<circle cx="278.685" cy="63.6918" r="1.53572" transform="rotate(-12.0377 278.685 63.6918)" fill="#8A7171"/>
<line x1="277.08" y1="61.0287" x2="278.881" y2="60.5794" stroke="#8A7171" stroke-width="5" stroke-linecap="round"/>
<path d="M931.271 330.794L900.47 333.585C892.886 334.272 889.306 341.257 889.845 347.203C890.383 353.149 895.86 358.48 902.67 357.863C909.48 357.246 912.227 349.671 912.227 349.671L923.216 348.675C923.216 348.675 926.97 355.662 934.555 354.975C942.139 354.287 945.145 347.854 944.636 342.238C944.127 336.623 939.315 330.283 931.271 330.794Z" fill="#F5F5F5" stroke="#8A7171" stroke-width="3" stroke-linecap="round"/>
<path d="M908.327 345.112C908.663 348.817 905.931 352.092 902.226 352.428C898.521 352.764 895.246 350.032 894.91 346.327C894.574 342.622 897.306 339.347 901.011 339.011C904.716 338.675 907.991 341.407 908.327 345.112Z" fill="#E5E5E5" stroke="#8A7171" stroke-width="3"/>
<path d="M939.877 342.702C940.213 346.407 937.481 349.682 933.777 350.018C930.072 350.354 926.796 347.622 926.46 343.917C926.125 340.212 928.856 336.937 932.561 336.601C936.266 336.265 939.541 338.997 939.877 342.702Z" fill="#E5E5E5" stroke="#8A7171" stroke-width="3"/>
<line x1="901.629" y1="343.359" x2="902.012" y2="347.589" stroke="#8A7171" stroke-width="3" stroke-linecap="round"/>
<path d="M932.965 339.575C932.965 339.576 932.965 339.576 932.965 339.577C932.966 339.579 932.966 339.581 932.967 339.582C932.969 339.586 932.97 339.587 932.971 339.587C932.971 339.588 932.973 339.589 932.976 339.59C932.978 339.591 932.98 339.591 932.982 339.591C932.983 339.591 932.983 339.591 932.984 339.591L932.965 339.575ZM932.965 339.575C932.965 339.575 932.965 339.574 932.965 339.573M932.965 339.575L932.965 339.573M932.965 339.573C932.965 339.572 932.965 339.57 932.966 339.568M932.965 339.573L932.966 339.568M932.966 339.568C932.967 339.565 932.968 339.563 932.969 339.563M932.966 339.568L932.969 339.563M932.969 339.563C932.969 339.562 932.97 339.561 932.973 339.559M932.969 339.563L932.973 339.559M932.973 339.559C932.975 339.558 932.977 339.557 932.979 339.557M932.973 339.559L932.979 339.557M932.979 339.557C932.979 339.557 932.98 339.556 932.98 339.556M932.979 339.557L932.98 339.556M932.98 339.556C932.981 339.556 932.982 339.556 932.982 339.557C932.984 339.557 932.986 339.557 932.988 339.558C932.991 339.559 932.993 339.56 932.993 339.56C932.994 339.561 932.995 339.562 932.997 339.565C932.998 339.567 932.999 339.569 932.999 339.57C932.999 339.571 932.999 339.572 933 339.572C933 339.573 932.999 339.573 932.999 339.574C932.999 339.576 932.999 339.578 932.998 339.58C932.997 339.583 932.996 339.585 932.996 339.585C932.995 339.586 932.994 339.587 932.991 339.589C932.989 339.59 932.987 339.59 932.986 339.591C932.985 339.591 932.984 339.591 932.984 339.591L932.98 339.556Z" fill="#DB656B" stroke="#D5545A" stroke-width="3"/>
<path d="M933.492 347.151C933.493 347.151 933.493 347.151 933.494 347.152C933.496 347.152 933.498 347.152 933.5 347.152C933.503 347.152 933.505 347.151 933.506 347.15C933.506 347.15 933.508 347.149 933.51 347.147C933.512 347.145 933.513 347.144 933.514 347.142C933.514 347.141 933.514 347.141 933.515 347.14L933.492 347.151ZM933.492 347.151C933.492 347.151 933.491 347.151 933.491 347.15M933.492 347.151L933.491 347.15M933.491 347.15C933.489 347.149 933.487 347.148 933.486 347.147M933.491 347.15L933.486 347.147M933.486 347.147C933.483 347.145 933.483 347.143 933.482 347.142M933.486 347.147L933.482 347.142M933.482 347.142C933.482 347.142 933.481 347.14 933.481 347.136M933.482 347.142L933.481 347.136M933.481 347.136C933.481 347.135 933.481 347.133 933.481 347.131M933.481 347.136L933.481 347.131M933.481 347.131C933.481 347.13 933.481 347.129 933.481 347.129M933.481 347.131L933.481 347.129M933.481 347.129C933.482 347.129 933.482 347.128 933.482 347.127C933.483 347.126 933.484 347.124 933.486 347.123C933.488 347.12 933.49 347.119 933.49 347.119C933.491 347.119 933.493 347.118 933.496 347.118C933.498 347.117 933.5 347.118 933.502 347.118C933.503 347.118 933.503 347.118 933.504 347.118C933.504 347.118 933.505 347.119 933.505 347.119C933.507 347.12 933.509 347.121 933.51 347.122C933.513 347.125 933.513 347.126 933.514 347.127C933.514 347.128 933.515 347.129 933.515 347.133C933.515 347.135 933.515 347.137 933.515 347.138C933.515 347.139 933.515 347.14 933.515 347.14L933.481 347.129Z" fill="#96BA90" stroke="#75AE6B" stroke-width="3"/>
<path d="M929.314 343.769C929.314 343.769 929.315 343.768 929.316 343.768C929.318 343.768 929.319 343.767 929.321 343.766C929.324 343.764 929.325 343.763 929.326 343.763C929.326 343.762 929.327 343.76 929.329 343.757C929.329 343.755 929.33 343.754 929.33 343.752C929.33 343.751 929.33 343.75 929.33 343.75L929.314 343.769ZM929.314 343.769C929.314 343.769 929.313 343.769 929.312 343.769M929.314 343.769L929.312 343.769M929.312 343.769C929.31 343.768 929.308 343.768 929.306 343.767M929.312 343.769L929.306 343.767M929.306 343.767C929.303 343.766 929.302 343.765 929.301 343.765M929.306 343.767L929.301 343.765M929.301 343.765C929.301 343.764 929.299 343.763 929.298 343.76M929.301 343.765L929.298 343.76M929.298 343.76C929.297 343.758 929.296 343.756 929.295 343.755M929.298 343.76L929.295 343.755M929.295 343.755C929.295 343.754 929.295 343.753 929.295 343.753M929.295 343.755L929.295 343.753M929.295 343.753C929.295 343.752 929.295 343.752 929.295 343.751C929.295 343.749 929.296 343.747 929.296 343.745C929.297 343.742 929.299 343.74 929.299 343.74C929.3 343.739 929.301 343.738 929.304 343.736C929.306 343.735 929.307 343.735 929.309 343.734C929.31 343.734 929.311 343.734 929.311 343.734C929.311 343.734 929.312 343.734 929.313 343.734C929.315 343.734 929.317 343.735 929.318 343.735C929.322 343.736 929.323 343.737 929.324 343.738C929.324 343.738 929.326 343.74 929.327 343.743C929.328 343.744 929.329 343.746 929.329 343.748C929.33 343.749 929.33 343.749 929.33 343.75L929.295 343.753Z" fill="#FFE898" stroke="#FFDE6A" stroke-width="3"/>
<path d="M937.209 343.107C937.209 343.107 937.209 343.106 937.209 343.105C937.209 343.104 937.209 343.102 937.209 343.1C937.209 343.096 937.208 343.095 937.208 343.094C937.208 343.093 937.207 343.092 937.204 343.089C937.203 343.088 937.201 343.087 937.2 343.086C937.199 343.085 937.198 343.085 937.198 343.085L937.209 343.107ZM937.209 343.107C937.209 343.108 937.208 343.108 937.208 343.109M937.209 343.107L937.208 343.109M937.208 343.109C937.207 343.111 937.206 343.112 937.204 343.113M937.208 343.109L937.204 343.113M937.204 343.113C937.202 343.116 937.2 343.117 937.2 343.117M937.204 343.113L937.2 343.117M937.2 343.117C937.199 343.118 937.197 343.118 937.194 343.119M937.2 343.117L937.194 343.119M937.194 343.119C937.192 343.119 937.19 343.119 937.188 343.118M937.194 343.119L937.188 343.118M937.188 343.118C937.187 343.118 937.187 343.118 937.186 343.118M937.188 343.118L937.186 343.118M937.186 343.118C937.186 343.118 937.185 343.117 937.185 343.117C937.183 343.116 937.181 343.115 937.18 343.114C937.178 343.111 937.177 343.11 937.176 343.109C937.176 343.108 937.175 343.107 937.175 343.103C937.175 343.101 937.175 343.099 937.175 343.098C937.175 343.097 937.176 343.096 937.176 343.096C937.176 343.095 937.176 343.095 937.177 343.094C937.178 343.092 937.179 343.091 937.18 343.089C937.182 343.087 937.184 343.086 937.185 343.086C937.185 343.085 937.187 343.085 937.191 343.084C937.192 343.084 937.194 343.084 937.196 343.085C937.197 343.085 937.198 343.085 937.198 343.085L937.186 343.118Z" fill="#B1BEFF" stroke="#8497FF" stroke-width="3"/>
<line x1="899.449" y1="345.415" x2="903.677" y2="345.007" stroke="#8A7171" stroke-width="3" stroke-linecap="round"/>
<line x1="1.5" y1="-1.5" x2="2.13394" y2="-1.5" transform="matrix(0.994617 -0.103621 0.0967311 0.995311 913.672 347.317)" stroke="#8A7171" stroke-width="3" stroke-linecap="round"/>
<line x1="1.5" y1="-1.5" x2="2.13394" y2="-1.5" transform="matrix(0.994617 -0.103621 0.0967311 0.995311 918.583 346.872)" stroke="#8A7171" stroke-width="3" stroke-linecap="round"/>
<path d="M917.927 330.488C917.615 329.416 917.613 329.109 918.808 329.001C919.817 328.91 920.793 328.62 921.813 328.528C924.693 328.267 927.572 327.805 930.433 327.546C931.344 327.463 932.441 327.332 932.893 326.363C933.327 325.433 931.033 325.417 930.482 325.376C926.549 325.081 922.547 326.013 918.621 326.193C914.286 326.393 909.84 326.839 905.518 326.488C904.508 326.405 902.35 326.223 904.37 325.285C904.914 325.033 905.787 324.755 906.394 324.7C910.613 324.318 914.75 323.185 918.919 322.46C922.68 321.806 926.556 321.667 930.36 321.323" stroke="#8A7171" stroke-width="2" stroke-linecap="round"/>
<path d="M916.453 30.5768C917.318 29.8024 918.697 30.262 918.925 31.4005L919.564 34.6022C919.937 36.4699 921.111 38.08 922.774 39.0071L925.519 40.5363C926.56 41.1163 926.541 42.62 925.486 43.1744L922.919 44.5238C921.182 45.4369 919.95 47.0862 919.568 49.0114L918.988 51.9304C918.759 53.0808 917.358 53.5357 916.498 52.7391L914.027 50.4519C912.654 49.1816 910.801 48.564 908.941 48.7568L905.592 49.1039C904.425 49.2248 903.578 48.0203 904.085 46.9629L905.373 44.2798C906.222 42.5103 906.226 40.4519 905.384 38.6789L904.14 36.0589C903.628 34.9826 904.516 33.7686 905.697 33.9291L908.81 34.3523C910.697 34.6089 912.602 34.0248 914.021 32.7544L916.453 30.5768Z" fill="#FFE898" stroke="#FFDE6A" stroke-width="5"/>
<path d="M929.659 62.444C930.462 61.6054 931.872 61.9577 932.186 63.0754L932.643 64.7017C933.159 66.5352 934.453 68.0504 936.183 68.8468L937.574 69.4875C938.657 69.9858 938.754 71.4864 937.745 72.1203L936.632 72.8192C934.97 73.8632 933.869 75.6023 933.636 77.5511L933.468 78.9521C933.329 80.1166 931.967 80.6779 931.047 79.9498L929.664 78.8545C928.198 77.6935 926.303 77.2201 924.464 77.5553L922.728 77.8715C921.574 78.0817 920.636 76.9459 921.061 75.8527L921.572 74.5374C922.283 72.7079 922.129 70.6552 921.153 68.9522L920.499 67.812C919.907 66.7781 920.699 65.4995 921.888 65.5688L923.418 65.6579C925.319 65.7686 927.173 65.0399 928.49 63.6642L929.659 62.444Z" fill="#FFE898" stroke="#FFDE6A" stroke-width="5"/>
<mask id="path-28-inside-1_15_111" fill="white">
<rect x="497" y="442" width="213" height="16" rx="4"/>
</mask>
<rect x="497" y="442" width="213" height="16" rx="4" fill="#C4C4C4" stroke="#8A7171" stroke-width="10" mask="url(#path-28-inside-1_15_111)"/>
<mask id="path-29-inside-2_15_111" fill="white">
<rect x="433" y="471" width="18" height="16" rx="4"/>
</mask>
<rect x="433" y="471" width="18" height="16" rx="4" fill="#C4C4C4" stroke="#8A7171" stroke-width="10" mask="url(#path-29-inside-2_15_111)"/>
<mask id="path-30-inside-3_15_111" fill="white">
<rect x="453" y="471" width="18" height="16" rx="4"/>
</mask>
<rect x="453" y="471" width="18" height="16" rx="4" fill="#C4C4C4" stroke="#8A7171" stroke-width="10" mask="url(#path-30-inside-3_15_111)"/>
<mask id="path-31-inside-4_15_111" fill="white">
<rect x="473" y="471" width="18" height="16" rx="4"/>
</mask>
<rect x="473" y="471" width="18" height="16" rx="4" fill="#C4C4C4" stroke="#8A7171" stroke-width="10" mask="url(#path-31-inside-4_15_111)"/>
<mask id="path-32-inside-5_15_111" fill="white">
<rect x="493" y="471" width="18" height="16" rx="4"/>
</mask>
<rect x="493" y="471" width="18" height="16" rx="4" fill="#C4C4C4" stroke="#8A7171" stroke-width="10" mask="url(#path-32-inside-5_15_111)"/>
<mask id="path-33-inside-6_15_111" fill="white">
<rect x="600" y="471" width="18" height="16" rx="4"/>
</mask>
<rect x="600" y="471" width="18" height="16" rx="4" fill="#C4C4C4" stroke="#8A7171" stroke-width="10" mask="url(#path-33-inside-6_15_111)"/>
<mask id="path-34-inside-7_15_111" fill="white">
<rect x="620" y="471" width="18" height="16" rx="4"/>
</mask>
<rect x="620" y="471" width="18" height="16" rx="4" fill="#C4C4C4" stroke="#8A7171" stroke-width="10" mask="url(#path-34-inside-7_15_111)"/>
<mask id="path-35-inside-8_15_111" fill="white">
<rect x="640" y="471" width="18" height="16" rx="4"/>
</mask>
<rect x="640" y="471" width="18" height="16" rx="4" fill="#C4C4C4" stroke="#8A7171" stroke-width="10" mask="url(#path-35-inside-8_15_111)"/>
<mask id="path-36-inside-9_15_111" fill="white">
<rect x="660" y="471" width="18" height="16" rx="4"/>
</mask>
<rect x="660" y="471" width="18" height="16" rx="4" fill="#C4C4C4" stroke="#8A7171" stroke-width="10" mask="url(#path-36-inside-9_15_111)"/>
<mask id="path-37-inside-10_15_111" fill="white">
<rect x="680" y="471" width="18" height="16" rx="4"/>
</mask>
<rect x="680" y="471" width="18" height="16" rx="4" fill="#C4C4C4" stroke="#8A7171" stroke-width="10" mask="url(#path-37-inside-10_15_111)"/>
<mask id="path-38-inside-11_15_111" fill="white">
<rect x="707" y="471" width="18" height="16" rx="4"/>
</mask>
<rect x="707" y="471" width="18" height="16" rx="4" fill="#C4C4C4" stroke="#8A7171" stroke-width="10" mask="url(#path-38-inside-11_15_111)"/>
<mask id="path-39-inside-12_15_111" fill="white">
<rect x="727" y="471" width="18" height="16" rx="4"/>
</mask>
<rect x="727" y="471" width="18" height="16" rx="4" fill="#C4C4C4" stroke="#8A7171" stroke-width="10" mask="url(#path-39-inside-12_15_111)"/>
<mask id="path-40-inside-13_15_111" fill="white">
<rect x="747" y="471" width="18" height="16" rx="4"/>
</mask>
<rect x="747" y="471" width="18" height="16" rx="4" fill="#C4C4C4" stroke="#8A7171" stroke-width="10" mask="url(#path-40-inside-13_15_111)"/>
<mask id="path-41-inside-14_15_111" fill="white">
<rect x="513" y="471" width="85" height="16" rx="4"/>
</mask>
<rect x="513" y="471" width="85" height="16" rx="4" fill="#C4C4C4" stroke="#8A7171" stroke-width="10" mask="url(#path-41-inside-14_15_111)"/>
<rect x="423.5" y="479.5" width="353" height="14" rx="3.5" fill="#C4C4C4" stroke="#8A7171" stroke-width="5"/>
<circle cx="321" cy="62" r="3.5" fill="#DB656B" stroke="#D5545A" stroke-width="3"/>
<circle cx="337" cy="62" r="3.5" fill="#FFE898" stroke="#FFDE6A" stroke-width="3"/>
<circle cx="353" cy="62" r="3.5" fill="#96BA90" stroke="#75AE6B" stroke-width="3"/>
<line x1="531" y1="75" x2="676" y2="75" stroke="#8A7171" stroke-width="2" stroke-linecap="round"/>
<path d="M666.5 66.625V66.0325L666.703 65.8225C667.558 66.5575 668.668 67 669.875 67C672.567 67 674.75 64.8175 674.75 62.125C674.75 59.4325 672.567 57.25 669.875 57.25C667.182 57.25 665 59.4325 665 62.125C665 63.3325 665.443 64.4425 666.177 65.2975L665.967 65.5H665.375L661.632 69.25L662.75 70.3675L666.5 66.625ZM666.5 62.125C666.5 60.2575 668.008 58.75 669.875 58.75C671.743 58.75 673.25 60.2575 673.25 62.125C673.25 63.9925 671.743 65.5 669.875 65.5C668.008 65.5 666.5 63.9925 666.5 62.125Z" fill="#8A7171"/>
<path d="M1011.24 456.599L985.968 448.65C984.033 448.058 982.974 446.811 982.793 444.908C982.62 443.086 983.427 441.702 985.216 440.756L1008.52 428.119C1009.34 427.673 1010.07 427.584 1010.7 427.85C1011.38 428.112 1011.88 428.575 1012.18 429.24C1012.49 429.865 1012.55 430.533 1012.37 431.244C1012.24 431.952 1011.76 432.528 1010.95 432.974L989.843 444.298L1012.7 451.434C1013.59 451.717 1014.17 452.194 1014.43 452.863C1014.74 453.487 1014.8 454.155 1014.62 454.866C1014.44 455.537 1014.04 456.066 1013.43 456.451C1012.85 456.833 1012.12 456.882 1011.24 456.599ZM1023.66 455.415C1022.85 455.86 1022.1 455.952 1021.42 455.69C1020.78 455.424 1020.31 454.978 1020.01 454.354C1019.7 453.689 1019.61 453.023 1019.75 452.356C1019.93 451.644 1020.43 451.066 1021.24 450.621L1042.35 439.296L1019.48 432.16C1018.6 431.877 1018 431.403 1017.69 430.738C1017.43 430.069 1017.38 429.399 1017.56 428.728C1017.74 428.017 1018.12 427.47 1018.7 427.088C1019.31 426.703 1020.06 426.652 1020.95 426.935L1046.22 434.944C1048.16 435.536 1049.21 436.743 1049.38 438.565C1049.57 440.467 1048.76 441.892 1046.97 442.839L1023.66 455.415Z" fill="#87979F"/>
<path d="M134.299 462.704L110.649 450.775C108.835 449.878 107.992 448.476 108.121 446.569C108.244 444.743 109.265 443.508 111.184 442.863L136.227 434.16C137.103 433.852 137.835 433.881 138.422 434.247C139.049 434.616 139.461 435.153 139.658 435.859C139.858 436.525 139.812 437.194 139.522 437.867C139.273 438.544 138.71 439.035 137.833 439.343L115.177 447.106L136.584 457.845C137.411 458.268 137.903 458.831 138.06 459.534C138.259 460.2 138.214 460.869 137.924 461.543C137.637 462.175 137.157 462.632 136.486 462.913C135.856 463.196 135.127 463.127 134.299 462.704ZM145.502 468.474C145.153 469.428 144.583 470.022 143.793 470.254C143.04 470.529 142.287 470.519 141.533 470.223C140.816 469.971 140.277 469.507 139.915 468.83C139.512 468.151 139.508 467.315 139.901 466.323L156.906 423.634C157.296 422.682 157.868 422.069 158.62 421.793C159.372 421.518 160.105 421.527 160.819 421.82C161.576 422.075 162.134 422.561 162.494 423.278C162.896 423.957 162.902 424.773 162.512 425.725L145.502 468.474ZM166.982 468.64C164.466 468.47 163.296 467.087 163.471 464.49L165.912 428.339C166.085 425.782 167.429 424.589 169.944 424.759C172.5 424.932 173.692 426.296 173.52 428.852L172.566 442.972C173.69 441.418 175.132 440.292 176.891 439.596C178.652 438.859 180.568 438.56 182.637 438.7C189.656 439.174 192.891 443.488 192.34 451.644L191.346 466.372C191.17 468.969 189.825 470.182 187.309 470.013C184.753 469.84 183.563 468.455 183.738 465.859L184.708 451.495C184.864 449.183 184.531 447.469 183.71 446.353C182.929 445.241 181.626 444.623 179.8 444.5C177.568 444.349 175.735 444.939 174.3 446.268C172.909 447.56 172.135 449.362 171.979 451.675L171.079 465.004C170.903 467.601 169.538 468.813 166.982 468.64ZM212.434 471.831C204.563 471.3 200.89 467.139 201.416 459.349L202.292 446.385L199.127 446.172C197.098 446.035 196.148 445.013 196.277 443.106C196.406 441.199 197.484 440.314 199.513 440.451L202.678 440.664L203.052 435.126C203.224 432.57 204.589 431.378 207.145 431.55C209.66 431.72 210.832 433.083 210.659 435.639L210.285 441.178L216.737 441.613C218.765 441.75 219.715 442.772 219.587 444.679C219.458 446.586 218.379 447.471 216.351 447.334L209.899 446.899L209.053 459.436C208.921 461.384 209.249 462.873 210.035 463.905C210.821 464.936 212.168 465.516 214.075 465.645C214.765 465.691 215.377 465.672 215.913 465.585C216.449 465.499 216.921 465.45 217.329 465.436C217.819 465.429 218.214 465.618 218.514 466.006C218.816 466.352 218.932 467.053 218.861 468.108C218.806 468.919 218.615 469.64 218.287 470.27C218.002 470.862 217.507 471.257 216.801 471.454C216.262 471.58 215.563 471.676 214.703 471.74C213.84 471.845 213.084 471.875 212.434 471.831ZM226.063 472.629C223.547 472.459 222.377 471.076 222.552 468.479L224.106 445.474C224.278 442.917 225.602 441.723 228.077 441.89C230.552 442.057 231.703 443.419 231.531 445.975L231.449 447.192C232.451 445.629 233.773 444.455 235.416 443.669C237.061 442.843 238.919 442.5 240.988 442.639C245.451 442.941 248.241 445.086 249.357 449.074C250.414 447.311 251.849 445.981 253.662 445.085C255.478 444.148 257.502 443.754 259.733 443.905C266.428 444.357 269.5 448.661 268.949 456.816L267.955 471.545C267.78 474.141 266.414 475.354 263.858 475.181C261.342 475.011 260.172 473.628 260.347 471.031L261.321 456.607C261.475 454.335 261.201 452.645 260.502 451.538C259.843 450.434 258.62 449.822 256.835 449.701C254.847 449.567 253.237 450.171 252.005 451.515C250.776 452.818 250.078 454.706 249.911 457.182L249.027 470.267C248.852 472.863 247.506 474.077 244.991 473.907C242.434 473.735 241.244 472.35 241.419 469.753L242.393 455.329C242.547 453.057 242.274 451.367 241.574 450.26C240.915 449.156 239.713 448.545 237.968 448.427C235.98 448.293 234.37 448.897 233.138 450.241C231.909 451.544 231.211 453.433 231.043 455.908L230.16 468.993C229.985 471.59 228.619 472.802 226.063 472.629ZM285.696 476.778C278.92 476.32 275.788 472.298 276.3 464.71L278.244 435.923C278.417 433.367 279.761 432.174 282.276 432.343C284.833 432.516 286.024 433.88 285.852 436.437L283.933 464.859C283.686 468.511 285.084 470.439 288.128 470.645C288.452 470.666 288.756 470.687 289.04 470.706C289.327 470.685 289.614 470.663 289.901 470.642C290.474 470.599 290.849 470.788 291.024 471.207C291.202 471.586 291.252 472.364 291.172 473.54C291.104 474.555 290.848 475.332 290.404 475.873C289.959 476.413 289.267 476.713 288.325 476.772C287.465 476.836 286.589 476.838 285.696 476.778ZM297.539 473.726C296.662 474.033 295.91 474.003 295.283 473.634C294.696 473.269 294.303 472.753 294.103 472.087C293.907 471.381 293.931 470.71 294.178 470.075C294.468 469.402 295.052 468.911 295.928 468.603L318.585 460.84L297.177 450.102C296.35 449.679 295.838 449.114 295.641 448.408C295.485 447.705 295.55 447.037 295.838 446.404C296.128 445.731 296.588 445.252 297.218 444.969C297.889 444.688 298.639 444.759 299.466 445.182L323.112 457.172C324.926 458.069 325.772 459.43 325.649 461.256C325.52 463.163 324.496 464.439 322.578 465.084L297.539 473.726Z" fill="#87979F"/>
<path d="M1036.59 184.542L1013.94 170.818C1012.2 169.784 1011.47 168.321 1011.74 166.429C1012.01 164.618 1013.12 163.466 1015.08 162.971L1040.72 156.233C1041.62 155.994 1042.35 156.08 1042.9 156.49C1043.5 156.906 1043.87 157.473 1044.01 158.193C1044.16 158.872 1044.06 159.536 1043.72 160.185C1043.42 160.839 1042.82 161.286 1041.92 161.525L1018.73 167.511L1039.25 179.875C1040.04 180.36 1040.48 180.96 1040.59 181.673C1040.73 182.352 1040.64 183.016 1040.3 183.665C1039.96 184.274 1039.45 184.692 1038.76 184.92C1038.11 185.154 1037.38 185.028 1036.59 184.542ZM1047.31 191.162C1046.89 192.087 1046.28 192.634 1045.47 192.804C1044.7 193.02 1043.95 192.952 1043.22 192.599C1042.53 192.292 1042.02 191.787 1041.72 191.085C1041.37 190.376 1041.43 189.543 1041.9 188.584L1062.15 147.34C1062.62 146.421 1063.23 145.853 1064.01 145.637C1064.78 145.421 1065.51 145.486 1066.2 145.833C1066.93 146.146 1067.45 146.674 1067.75 147.417C1068.1 148.125 1068.05 148.939 1067.58 149.858L1047.31 191.162ZM1072.77 193.705C1070.19 193.329 1068.01 192.374 1066.22 190.838C1064.47 189.309 1063.22 187.318 1062.47 184.866C1061.72 182.374 1061.58 179.558 1062.04 176.419C1062.5 173.24 1063.44 170.603 1064.85 168.508C1066.28 166.373 1068.04 164.823 1070.16 163.857C1072.31 162.897 1074.68 162.606 1077.25 162.981C1079.34 163.287 1081.17 164.025 1082.72 165.198C1084.28 166.37 1085.37 167.782 1085.99 169.434L1088.06 155.25C1088.43 152.715 1089.86 151.629 1092.35 151.993C1094.89 152.363 1095.97 153.816 1095.6 156.351L1090.37 192.205C1089.99 194.78 1088.56 195.886 1086.06 195.522C1083.57 195.158 1082.51 193.688 1082.89 191.113L1083.07 189.845C1081.99 191.332 1080.54 192.434 1078.7 193.153C1076.88 193.832 1074.9 194.016 1072.77 193.705ZM1075.72 188.279C1077.97 188.608 1079.9 188.067 1081.5 186.657C1083.11 185.207 1084.15 182.892 1084.61 179.713C1085.08 176.494 1084.75 174 1083.61 172.231C1082.47 170.422 1080.78 169.353 1078.53 169.024C1076.27 168.695 1074.34 169.236 1072.74 170.646C1071.14 172.015 1070.11 174.31 1069.64 177.529C1069.18 180.708 1069.51 183.222 1070.64 185.072C1071.77 186.881 1073.46 187.95 1075.72 188.279ZM1106.63 161.72C1105.22 161.515 1104.17 161.011 1103.46 160.21C1102.8 159.374 1102.56 158.332 1102.75 157.085C1102.93 155.797 1103.46 154.867 1104.32 154.294C1105.23 153.728 1106.39 153.547 1107.79 153.753C1110.77 154.187 1112.07 155.733 1111.68 158.388C1111.29 161.044 1109.61 162.155 1106.63 161.72ZM1101.38 197.695C1100.17 197.519 1099.3 197.022 1098.76 196.204C1098.23 195.385 1098.05 194.332 1098.24 193.045L1101.47 170.892C1101.87 168.156 1103.32 166.97 1105.81 167.334C1108.35 167.704 1109.41 169.257 1109.02 171.993L1105.78 194.146C1105.6 195.433 1105.13 196.393 1104.38 197.023C1103.63 197.653 1102.63 197.877 1101.38 197.695ZM1124.97 201.199C1122.95 200.905 1121.62 199.621 1120.97 197.348L1114.62 173.674C1114.25 172.264 1114.4 171.094 1115.07 170.164C1115.78 169.241 1116.96 168.899 1118.61 169.14C1119.54 169.275 1120.25 169.605 1120.75 170.13C1121.25 170.614 1121.64 171.472 1121.91 172.704L1126.51 191.869L1136.65 174.793C1137.26 173.731 1137.87 173.04 1138.49 172.719C1139.16 172.365 1140 172.261 1141 172.408C1142.29 172.596 1143.12 173.231 1143.5 174.313C1143.88 175.395 1143.69 176.539 1142.94 177.745L1129.9 198.651C1128.7 200.655 1127.06 201.504 1124.97 201.199ZM1147.68 200.752C1146.78 200.991 1146.03 200.903 1145.43 200.487C1144.88 200.077 1144.53 199.532 1144.38 198.853C1144.24 198.134 1144.31 197.467 1144.61 196.852C1144.95 196.204 1145.57 195.76 1146.47 195.521L1169.66 189.534L1149.15 177.171C1148.35 176.686 1147.89 176.083 1147.74 175.364C1147.64 174.651 1147.76 173.989 1148.1 173.381C1148.44 172.732 1148.93 172.291 1149.58 172.057C1150.27 171.829 1151.02 171.958 1151.81 172.443L1174.45 186.228C1176.19 187.262 1176.93 188.685 1176.67 190.496C1176.39 192.387 1175.27 193.58 1173.31 194.075L1147.68 200.752Z" fill="#87979F"/>
</svg>
