<svg width="147" height="21" viewBox="0 0 147 21" fill="none" xmlns="http://www.w3.org/2000/svg">
<line x1="1" y1="20" x2="146" y2="20" stroke="#8A7171" stroke-width="2" stroke-linecap="round"/>
<path d="M136.5 11.625V11.0325L136.703 10.8225C137.558 11.5575 138.668 12 139.875 12C142.567 12 144.75 9.8175 144.75 7.125C144.75 4.4325 142.567 2.25 139.875 2.25C137.182 2.25 135 4.4325 135 7.125C135 8.3325 135.443 9.4425 136.177 10.2975L135.967 10.5H135.375L131.632 14.25L132.75 15.3675L136.5 11.625ZM136.5 7.125C136.5 5.2575 138.008 3.75 139.875 3.75C141.743 3.75 143.25 5.2575 143.25 7.125C143.25 8.9925 141.743 10.5 139.875 10.5C138.008 10.5 136.5 8.9925 136.5 7.125Z" fill="#8A7171"/>
</svg>
