<svg width="59" height="73" viewBox="0 0 59 73" fill="none" xmlns="http://www.w3.org/2000/svg">
<path d="M26.4533 12.5768C27.3183 11.8024 28.6973 12.262 28.9247 13.4005L29.5642 16.6022C29.9372 18.4699 31.1106 20.08 32.7744 21.0071L35.5188 22.5363C36.5597 23.1163 36.5413 24.62 35.4865 25.1744L32.919 26.5238C31.1816 27.4369 29.9499 29.0862 29.5676 31.0114L28.9879 33.9304C28.7594 35.0808 27.3585 35.5357 26.4977 34.7391L24.0266 32.4519C22.6542 31.1816 20.8013 30.564 18.9412 30.7568L15.592 31.1039C14.4254 31.2248 13.5776 30.0203 14.0851 28.9629L15.3727 26.2798C16.2219 24.5103 16.226 22.4519 15.384 20.6789L14.1396 18.0589C13.6284 16.9826 14.5159 15.7686 15.6966 15.9291L18.8096 16.3523C20.6969 16.6089 22.6017 16.0248 24.0207 14.7544L26.4533 12.5768Z" fill="#FFE898" stroke="#FFDE6A" stroke-width="5"/>
<path d="M39.6588 44.444C40.4617 43.6054 41.872 43.9577 42.1862 45.0754L42.6435 46.7017C43.159 48.5352 44.4527 50.0504 46.1828 50.8468L47.5744 51.4875C48.6568 51.9858 48.7541 53.4864 47.745 54.1203L46.6322 54.8192C44.9702 55.8632 43.8688 57.6023 43.6356 59.5511L43.4679 60.9521C43.3286 62.1166 41.9667 62.6779 41.0473 61.9498L39.6643 60.8545C38.1984 59.6935 36.3035 59.2201 34.4638 59.5553L32.7282 59.8715C31.5743 60.0817 30.6364 58.9459 31.0611 57.8527L31.572 56.5374C32.2827 54.7079 32.1286 52.6552 31.1528 50.9522L30.4994 49.812C29.907 48.7781 30.6985 47.4995 31.8881 47.5688L33.4176 47.6579C35.319 47.7686 37.1733 47.0399 38.4905 45.6642L39.6588 44.444Z" fill="#FFE898" stroke="#FFDE6A" stroke-width="5"/>
</svg>
