<svg width="89" height="90" viewBox="0 0 89 90" fill="none" xmlns="http://www.w3.org/2000/svg">
<path d="M28.547 59.3666L30.3352 56.635C31.3784 55.0415 31.6702 53.0706 31.1335 51.2432L30.2482 48.2289C29.9124 47.0856 30.9796 46.026 32.1205 46.3701L34.8974 47.2074C36.7766 47.7741 38.8112 47.4612 40.4333 46.3563L42.893 44.6808C43.8623 44.0206 45.1803 44.6781 45.2357 45.8497L45.3948 49.2131C45.4832 51.081 46.3717 52.8203 47.8334 53.9867L50.4653 56.0869C51.382 56.8184 51.1424 58.2717 50.0392 58.6701L47.2401 59.6811C45.3941 60.3478 43.9482 61.8129 43.306 63.6676L42.3568 66.4084C41.9669 67.5344 40.483 67.7781 39.7534 66.8359L37.8299 64.352C36.6638 62.846 34.8959 61.9274 32.9934 61.8386L29.7321 61.6866C28.5723 61.6325 27.9111 60.338 28.547 59.3666Z" fill="#FFE898" stroke="#FFDE6A" stroke-width="5"/>
<path d="M41.2926 32.4807L42.1065 31.0003C43.0241 29.3313 43.1636 27.3439 42.488 25.5631L41.9446 24.1307C41.5219 23.0165 42.5045 21.8781 43.6684 22.1335L44.9521 22.415C46.8692 22.8355 48.8737 22.3673 50.4061 21.1409L51.5078 20.2593C52.4235 19.5264 53.7882 20.0808 53.9335 21.2446L54.152 22.9951C54.3836 24.8507 55.4032 26.5166 56.9502 27.5672L58.4097 28.5583C59.3799 29.2172 59.2527 30.6847 58.1834 31.1667L56.8971 31.7465C55.1078 32.5532 53.7788 34.1251 53.281 36.0237L52.9477 37.2948C52.6454 38.4475 51.1846 38.8045 50.3848 37.9212L49.3565 36.7855C48.0781 35.3737 46.2448 34.5936 44.3411 34.6514L42.6525 34.7027C41.4921 34.7379 40.7332 33.498 41.2926 32.4807Z" fill="#FFE898" stroke="#FFDE6A" stroke-width="5"/>
</svg>
