<svg width="70" height="37" viewBox="0 0 70 37" fill="none" xmlns="http://www.w3.org/2000/svg">
<path d="M30.2358 33.5986L4.96818 25.6499C3.03267 25.0581 1.9743 23.8108 1.79305 21.9081C1.61951 20.0864 2.42722 18.7022 4.21619 17.7556L27.5229 5.11854C28.3383 4.6732 29.0651 4.58355 29.7032 4.84957C30.3818 5.11173 30.8753 5.57535 31.1838 6.24043C31.4884 6.86503 31.552 7.53301 31.3746 8.24436C31.2378 8.95186 30.7616 9.52828 29.9462 9.97361L8.84294 21.2978L31.7047 28.434C32.5895 28.7174 33.166 29.1936 33.4339 29.8625C33.7385 30.4871 33.8022 31.1551 33.6248 31.8664C33.4436 32.5373 33.0446 33.0655 32.4277 33.4511C31.8513 33.8328 31.1207 33.882 30.2358 33.5986ZM42.6607 32.415C41.8453 32.8604 41.0983 32.952 40.4197 32.6898C39.7816 32.4238 39.3102 31.9785 39.0056 31.3539C38.6972 30.6888 38.6133 30.0227 38.754 29.3557C38.9314 28.6444 39.4278 28.066 40.2432 27.6207L61.3464 16.2965L38.4847 9.16025C37.5998 8.87689 37.0032 8.40266 36.6947 7.73758C36.4268 7.06865 36.3834 6.39874 36.5646 5.72787C36.7419 5.01651 37.1188 4.46998 37.6952 4.08827C38.3121 3.7027 39.0629 3.6516 39.9478 3.93496L65.2212 11.9444C67.1567 12.5362 68.2112 13.743 68.3848 15.5647C68.566 17.4675 67.7622 18.8921 65.9732 19.8387L42.6607 32.415Z" fill="#87979F"/>
</svg>
