<svg width="205" height="172" viewBox="0 0 205 172" fill="none" xmlns="http://www.w3.org/2000/svg">
<path d="M34.5508 63.4763L11.895 49.7521C10.1555 48.7174 9.42377 47.2544 9.69975 45.3631C9.96399 43.5523 11.0774 42.3997 13.0401 41.9052L38.6817 35.1671C39.5796 34.9282 40.3069 35.0138 40.8635 35.4238C41.4604 35.8397 41.8296 36.4073 41.9713 37.1266C42.1187 37.8057 42.0219 38.4697 41.6806 39.1185C41.3796 39.7732 40.7801 40.22 39.8822 40.4589L16.6928 46.4452L37.2046 58.8086C37.9968 59.294 38.4436 59.8935 38.5449 60.6069C38.6924 61.286 38.5955 61.95 38.2543 62.5988C37.9189 63.2075 37.4058 63.6258 36.7149 63.8537C36.0644 64.0876 35.343 63.9618 34.5508 63.4763ZM55.4003 70.4024C52.8249 70.0266 50.6424 69.0711 48.8526 67.5359C47.1031 66.0066 45.8525 64.0158 45.1007 61.5636C44.3548 59.0711 44.2108 56.2555 44.6688 53.1167C45.1327 49.9377 46.0723 47.3007 47.4876 45.2058C48.9088 43.0706 50.6762 41.5203 52.7898 40.5547C54.9436 39.5949 57.3082 39.303 59.8836 39.6788C61.9761 39.9841 63.7999 40.7229 65.3549 41.895C66.91 43.0672 67.9985 44.4795 68.6204 46.132L70.6903 31.9472C71.0602 29.412 72.4926 28.3265 74.9875 28.6905C77.5227 29.0605 78.6053 30.513 78.2354 33.0482L73.0034 68.9025C72.6276 71.4779 71.1922 72.5835 68.6973 72.2195C66.2024 71.8554 65.1429 70.3857 65.5187 67.8103L65.7036 66.5427C64.6237 68.029 63.1682 69.1317 61.3372 69.8509C59.512 70.5298 57.5331 70.7136 55.4003 70.4024ZM58.3497 64.9764C60.6032 65.3053 62.5315 64.7647 64.1345 63.3547C65.7434 61.9045 66.7799 59.5899 67.2437 56.4109C67.7135 53.1917 67.3788 50.6975 66.2396 48.9285C65.1063 47.1192 63.413 46.0502 61.1595 45.7213C58.906 45.3925 56.9778 45.9331 55.3747 47.3431C53.7775 48.7128 52.744 51.0073 52.2743 54.2265C51.8104 57.4055 52.1422 59.9198 53.2696 61.7693C54.4029 63.5785 56.0963 64.6476 58.3497 64.9764ZM89.2638 38.4179C87.8553 38.2124 86.7986 37.7088 86.0937 36.9073C85.4348 36.0714 85.1964 35.0297 85.3784 33.7823C85.5663 32.4946 86.0924 31.5645 86.9568 30.992C87.8615 30.4253 89.018 30.2448 90.4264 30.4503C93.4042 30.8848 94.6993 32.43 94.3118 35.0859C93.9242 37.7417 92.2416 38.8524 89.2638 38.4179ZM84.0142 74.3929C82.807 74.2167 81.9343 73.7195 81.3961 72.9012C80.858 72.0829 80.6828 71.03 80.8708 69.7423L84.1033 47.5899C84.5026 44.8535 85.9497 43.6674 88.4446 44.0314C90.9798 44.4014 92.0477 45.9545 91.6484 48.6909L88.4158 70.8433C88.2279 72.131 87.7592 73.09 87.0097 73.7204C86.2601 74.3508 85.2616 74.5749 84.0142 74.3929ZM107.599 77.8962C105.587 77.6026 104.254 76.3189 103.599 74.0452L97.2523 50.3717C96.8827 48.9615 97.0329 47.7916 97.7028 46.8619C98.4129 45.9381 99.593 45.5966 101.243 45.8373C102.168 45.9724 102.881 46.3024 103.379 46.8272C103.884 47.3118 104.272 48.1699 104.545 49.4015L109.146 68.5667L119.282 51.4903C119.889 50.4281 120.503 49.737 121.125 49.4168C121.794 49.0622 122.631 48.9583 123.637 49.1051C124.924 49.293 125.756 49.9282 126.133 51.0105C126.509 52.0929 126.322 53.2368 125.57 54.4423L112.533 75.3488C111.336 77.3524 109.692 78.2015 107.599 77.8962ZM130.31 77.4497C129.412 77.6886 128.664 77.6001 128.068 77.1842C127.511 76.7742 127.159 76.2296 127.011 75.5506C126.87 74.8312 126.947 74.1643 127.242 73.5499C127.583 72.901 128.203 72.4571 129.1 72.2183L152.29 66.232L131.778 53.8686C130.986 53.3831 130.519 52.7807 130.377 52.0614C130.276 51.348 130.393 50.6869 130.728 50.0783C131.07 49.4295 131.566 48.9881 132.216 48.7543C132.907 48.5263 133.649 48.6551 134.441 49.1405L157.088 62.9251C158.827 63.9598 159.565 65.3825 159.301 67.1933C159.025 69.0846 157.905 70.2775 155.943 70.772L130.31 77.4497Z" fill="#87979F"/>
<path d="M54.592 126.542L31.9363 112.818C30.1968 111.784 29.465 110.321 29.741 108.429C30.0052 106.618 31.1187 105.466 33.0813 104.971L58.723 98.2332C59.6209 97.9944 60.3481 98.0799 60.9048 98.4899C61.5016 98.9058 61.8709 99.4734 62.0125 100.193C62.16 100.872 62.0631 101.536 61.7218 102.185C61.4208 102.839 60.8214 103.286 59.9235 103.525L36.734 109.511L57.2458 121.875C58.038 122.36 58.4848 122.96 58.5862 123.673C58.7337 124.352 58.6368 125.016 58.2955 125.665C57.9601 126.274 57.447 126.692 56.7562 126.92C56.1056 127.154 55.3842 127.028 54.592 126.542ZM65.3147 133.162C64.8921 134.087 64.278 134.634 63.4723 134.804C62.701 135.02 61.9507 134.952 61.2213 134.599C60.5264 134.292 60.0246 133.787 59.7162 133.085C59.3675 132.376 59.4275 131.543 59.8962 130.584L80.1549 89.3396C80.6178 88.4208 81.2349 87.8533 82.0062 87.6371C82.7775 87.4209 83.5077 87.4863 84.1968 87.8335C84.932 88.1462 85.4509 88.674 85.7534 89.4168C86.1021 90.1253 86.0451 90.9389 85.5822 91.8577L65.3147 133.162ZM90.7676 135.705C88.1922 135.329 86.0096 134.374 84.2198 132.838C82.4703 131.309 81.2197 129.318 80.4679 126.866C79.722 124.374 79.578 121.558 80.036 118.419C80.4999 115.24 81.4395 112.603 82.8549 110.508C84.2761 108.373 86.0435 106.823 88.157 105.857C90.3108 104.897 92.6755 104.606 95.2508 104.981C97.3434 105.287 99.1671 106.025 100.722 107.198C102.277 108.37 103.366 109.782 103.988 111.434L106.057 97.2497C106.427 94.7146 107.86 93.629 110.355 93.9931C112.89 94.363 113.973 95.8156 113.603 98.3507L108.371 134.205C107.995 136.78 106.559 137.886 104.065 137.522C101.57 137.158 100.51 135.688 100.886 133.113L101.071 131.845C99.9909 133.332 98.5354 134.434 96.7044 135.153C94.8793 135.832 92.9003 136.016 90.7676 135.705ZM93.7169 130.279C95.9704 130.608 97.8987 130.067 99.5017 128.657C101.111 127.207 102.147 124.892 102.611 121.713C103.081 118.494 102.746 116 101.607 114.231C100.474 112.422 98.7802 111.353 96.5267 111.024C94.2732 110.695 92.345 111.236 90.7419 112.646C89.1447 114.015 88.1113 116.31 87.6415 119.529C87.1776 122.708 87.5094 125.222 88.6368 127.072C89.7701 128.881 91.4635 129.95 93.7169 130.279ZM124.631 103.72C123.223 103.515 122.166 103.011 121.461 102.21C120.802 101.374 120.564 100.332 120.746 99.0848C120.934 97.7971 121.46 96.867 122.324 96.2945C123.229 95.7278 124.385 95.5473 125.794 95.7528C128.771 96.1873 130.067 97.7325 129.679 100.388C129.291 103.044 127.609 104.155 124.631 103.72ZM119.381 139.695C118.174 139.519 117.301 139.022 116.763 138.204C116.225 137.385 116.05 136.332 116.238 135.045L119.471 112.892C119.87 110.156 121.317 108.97 123.812 109.334C126.347 109.704 127.415 111.257 127.016 113.993L123.783 136.146C123.595 137.433 123.126 138.393 122.377 139.023C121.627 139.653 120.629 139.877 119.381 139.695ZM142.967 143.199C140.955 142.905 139.621 141.621 138.967 139.348L132.619 115.674C132.25 114.264 132.4 113.094 133.07 112.164C133.78 111.241 134.96 110.899 136.61 111.14C137.536 111.275 138.248 111.605 138.747 112.13C139.251 112.614 139.64 113.472 139.912 114.704L144.513 133.869L154.649 116.793C155.256 115.731 155.87 115.04 156.493 114.719C157.161 114.365 157.998 114.261 159.004 114.408C160.292 114.596 161.124 115.231 161.5 116.313C161.876 117.395 161.689 118.539 160.937 119.745L147.9 140.651C146.704 142.655 145.059 143.504 142.967 143.199ZM165.677 142.752C164.779 142.991 164.032 142.903 163.435 142.487C162.878 142.077 162.526 141.532 162.379 140.853C162.237 140.134 162.314 139.467 162.609 138.852C162.95 138.204 163.57 137.76 164.468 137.521L187.657 131.534L167.145 119.171C166.353 118.686 165.886 118.083 165.745 117.364C165.643 116.651 165.76 115.989 166.096 115.381C166.437 114.732 166.933 114.291 167.583 114.057C168.274 113.829 169.016 113.958 169.808 114.443L192.455 128.228C194.194 129.262 194.932 130.685 194.668 132.496C194.392 134.387 193.272 135.58 191.31 136.075L165.677 142.752Z" fill="#87979F"/>
</svg>
