<svg width="333" height="166" viewBox="0 0 333 166" fill="none" xmlns="http://www.w3.org/2000/svg">
<path d="M32.3307 60.7062L8.68054 48.7769C6.86617 47.88 6.02337 46.478 6.15212 44.571C6.2754 42.7452 7.29627 41.5098 9.21474 40.8649L34.2579 32.1622C35.1346 31.8545 35.8663 31.8835 36.453 32.2492C37.0803 32.6176 37.4923 33.155 37.6892 33.8612C37.8888 34.5268 37.8436 35.1963 37.5536 35.8696C37.3042 36.5457 36.7411 37.0375 35.8644 37.3451L13.2079 45.1086L34.6152 55.847C35.4426 56.2697 35.9344 56.8328 36.0907 57.5363C36.2904 58.2019 36.2452 58.8714 35.9551 59.5447C35.6679 60.1774 35.1887 60.6342 34.5176 60.915C33.887 61.1985 33.1581 61.1289 32.3307 60.7062ZM45.9935 65.3581C43.4779 65.1883 42.3077 63.805 42.4831 61.2082L44.9239 25.0565C45.0965 22.5003 46.4406 21.3072 48.9562 21.477C51.5124 21.6496 52.7042 23.014 52.5316 25.5702L51.5783 39.69C52.7022 38.1355 54.1436 37.0101 55.9026 36.3137C57.6642 35.5767 59.5797 35.278 61.649 35.4177C68.6683 35.8916 71.9027 40.2063 71.352 48.3618L70.3576 63.0902C70.1823 65.687 68.8368 66.9004 66.3212 66.7306C63.765 66.558 62.5746 65.1733 62.7499 62.5766L63.7197 48.2133C63.8759 45.9005 63.5432 44.1866 62.7218 43.0714C61.941 41.9589 60.6376 41.341 58.8118 41.2178C56.5802 41.0671 54.747 41.6566 53.3122 42.9863C51.9207 44.2782 51.1468 46.0805 50.9907 48.3932L50.0908 61.7219C49.9154 64.3186 48.5497 65.5307 45.9935 65.3581ZM91.4464 68.5492C83.575 68.0178 79.9023 63.8569 80.4282 56.0667L81.3035 43.1032L78.1387 42.8895C76.11 42.7525 75.16 41.7305 75.2888 39.8236C75.4175 37.9166 76.4963 37.0316 78.525 37.1685L81.6898 37.3822L82.0637 31.8438C82.2363 29.2876 83.6007 28.0958 86.1568 28.2684C88.6725 28.4383 89.844 29.8013 89.6714 32.3575L89.2974 37.8959L95.7488 38.3314C97.7775 38.4684 98.7274 39.4904 98.5987 41.3974C98.4699 43.3044 97.3912 44.1894 95.3625 44.0524L88.9112 43.6168L88.0647 56.1543C87.9332 58.1019 88.2606 59.5913 89.0469 60.6226C89.8332 61.6539 91.1799 62.2339 93.0869 62.3627C93.7766 62.4093 94.3894 62.3895 94.925 62.3034C95.4607 62.2173 95.9328 62.1676 96.3413 62.1545C96.8309 62.1468 97.2257 62.3365 97.5256 62.7235C97.8283 63.07 97.9441 63.7708 97.8728 64.8257C97.818 65.6372 97.6267 66.3579 97.2989 66.9879C97.0143 67.5801 96.519 67.9746 95.8128 68.1715C95.2743 68.2982 94.575 68.3936 93.7147 68.4578C92.8517 68.5626 92.0956 68.5931 91.4464 68.5492ZM105.075 69.3471C102.559 69.1773 101.389 67.794 101.564 65.1972L103.118 42.1916C103.29 39.6354 104.614 38.4409 107.089 38.608C109.564 38.7751 110.715 40.1367 110.543 42.6929L110.461 43.9101C111.463 42.3474 112.785 41.1732 114.428 40.3874C116.073 39.561 117.931 39.2177 120 39.3574C124.463 39.6587 127.253 41.8036 128.369 45.7918C129.426 44.029 130.861 42.6993 132.674 41.8027C134.49 40.8656 136.514 40.4724 138.745 40.623C145.44 41.0751 148.512 45.3788 147.961 53.5342L146.967 68.2627C146.792 70.8594 145.426 72.0715 142.87 71.8989C140.354 71.7291 139.184 70.3458 139.359 67.749L140.333 53.3249C140.487 51.0527 140.213 49.3631 139.514 48.2562C138.855 47.1519 137.632 46.5395 135.847 46.419C133.859 46.2847 132.249 46.8893 131.017 48.2327C129.788 49.5355 129.09 51.4245 128.923 53.8995L128.039 66.9847C127.864 69.5815 126.518 70.7949 124.003 70.6251C121.446 70.4525 120.256 69.0678 120.431 66.4711L121.405 52.0469C121.559 49.7747 121.286 48.0852 120.586 46.9782C119.927 45.8739 118.725 45.2629 116.98 45.1451C114.992 45.0109 113.382 45.6155 112.15 46.9589C110.921 48.2617 110.223 50.1506 110.055 52.6257L109.172 65.7109C108.997 68.3076 107.631 69.5197 105.075 69.3471ZM164.708 73.4957C157.932 73.0382 154.8 69.0157 155.312 61.4283L157.256 32.6409C157.429 30.0847 158.773 28.8915 161.288 29.0614C163.845 29.234 165.036 30.5983 164.864 33.1545L162.945 61.5768C162.698 65.2285 164.096 67.1571 167.14 67.3625C167.464 67.3844 167.768 67.405 168.052 67.4242C168.339 67.4028 168.626 67.3814 168.913 67.36C169.486 67.3172 169.861 67.5055 170.036 67.9249C170.214 68.3038 170.264 69.0816 170.184 70.2582C170.116 71.2726 169.86 72.0501 169.416 72.5907C168.971 73.1314 168.279 73.4311 167.337 73.4898C166.477 73.554 165.601 73.5559 164.708 73.4957ZM176.551 70.4435C175.674 70.7512 174.922 70.7208 174.295 70.3523C173.708 69.9866 173.315 69.471 173.115 68.8054C172.919 68.0992 172.943 67.4283 173.19 66.7928C173.48 66.1195 174.064 65.629 174.94 65.3214L197.597 57.558L176.189 46.8195C175.362 46.3968 174.85 45.8324 174.653 45.1262C174.497 44.4227 174.562 43.7546 174.849 43.1218C175.14 42.4485 175.6 41.9701 176.23 41.6866C176.901 41.4058 177.651 41.4768 178.478 41.8995L202.124 53.8896C203.938 54.7865 204.784 56.1479 204.661 57.9738C204.532 59.8808 203.508 61.1567 201.59 61.8016L176.551 70.4435Z" fill="#87979F"/>
<path d="M134.299 128.704L110.649 116.775C108.835 115.878 107.992 114.476 108.121 112.569C108.244 110.743 109.265 109.508 111.184 108.863L136.227 100.16C137.103 99.8524 137.835 99.8814 138.422 100.247C139.049 100.616 139.461 101.153 139.658 101.859C139.858 102.525 139.812 103.194 139.522 103.867C139.273 104.544 138.71 105.035 137.833 105.343L115.177 113.106L136.584 123.845C137.411 124.268 137.903 124.831 138.06 125.534C138.259 126.2 138.214 126.869 137.924 127.543C137.637 128.175 137.157 128.632 136.486 128.913C135.856 129.196 135.127 129.127 134.299 128.704ZM145.502 134.474C145.153 135.428 144.583 136.022 143.793 136.254C143.04 136.529 142.287 136.519 141.533 136.223C140.816 135.971 140.277 135.507 139.915 134.83C139.512 134.151 139.508 133.315 139.901 132.323L156.906 89.6342C157.296 88.6823 157.868 88.0687 158.62 87.7934C159.372 87.5182 160.105 87.5269 160.819 87.8196C161.576 88.0746 162.134 88.5606 162.494 89.2778C162.896 89.9571 162.902 90.7727 162.512 91.7246L145.502 134.474ZM166.982 134.64C164.466 134.47 163.296 133.087 163.471 130.49L165.912 94.3385C166.085 91.7824 167.429 90.5892 169.944 90.759C172.5 90.9316 173.692 92.296 173.52 94.8522L172.566 108.972C173.69 107.418 175.132 106.292 176.891 105.596C178.652 104.859 180.568 104.56 182.637 104.7C189.656 105.174 192.891 109.488 192.34 117.644L191.346 132.372C191.17 134.969 189.825 136.182 187.309 136.013C184.753 135.84 183.563 134.455 183.738 131.859L184.708 117.495C184.864 115.183 184.531 113.469 183.71 112.353C182.929 111.241 181.626 110.623 179.8 110.5C177.568 110.349 175.735 110.939 174.3 112.268C172.909 113.56 172.135 115.362 171.979 117.675L171.079 131.004C170.903 133.601 169.538 134.813 166.982 134.64ZM212.434 137.831C204.563 137.3 200.89 133.139 201.416 125.349L202.292 112.385L199.127 112.172C197.098 112.035 196.148 111.013 196.277 109.106C196.406 107.199 197.484 106.314 199.513 106.451L202.678 106.664L203.052 101.126C203.224 98.5697 204.589 97.3779 207.145 97.5504C209.66 97.7203 210.832 99.0833 210.659 101.639L210.285 107.178L216.737 107.613C218.765 107.75 219.715 108.772 219.587 110.679C219.458 112.586 218.379 113.471 216.351 113.334L209.899 112.899L209.053 125.436C208.921 127.384 209.249 128.873 210.035 129.905C210.821 130.936 212.168 131.516 214.075 131.645C214.765 131.691 215.377 131.672 215.913 131.585C216.449 131.499 216.921 131.45 217.329 131.436C217.819 131.429 218.214 131.618 218.514 132.006C218.816 132.352 218.932 133.053 218.861 134.108C218.806 134.919 218.615 135.64 218.287 136.27C218.002 136.862 217.507 137.257 216.801 137.454C216.262 137.58 215.563 137.676 214.703 137.74C213.84 137.845 213.084 137.875 212.434 137.831ZM226.063 138.629C223.547 138.459 222.377 137.076 222.552 134.479L224.106 111.474C224.278 108.917 225.602 107.723 228.077 107.89C230.552 108.057 231.703 109.419 231.531 111.975L231.449 113.192C232.451 111.629 233.773 110.455 235.416 109.669C237.061 108.843 238.919 108.5 240.988 108.639C245.451 108.941 248.241 111.086 249.357 115.074C250.414 113.311 251.849 111.981 253.662 111.085C255.478 110.148 257.502 109.754 259.733 109.905C266.428 110.357 269.5 114.661 268.949 122.816L267.955 137.545C267.78 140.141 266.414 141.354 263.858 141.181C261.342 141.011 260.172 139.628 260.347 137.031L261.321 122.607C261.475 120.335 261.201 118.645 260.502 117.538C259.843 116.434 258.62 115.822 256.835 115.701C254.847 115.567 253.237 116.171 252.005 117.515C250.776 118.818 250.078 120.706 249.911 123.182L249.027 136.267C248.852 138.863 247.506 140.077 244.991 139.907C242.434 139.735 241.244 138.35 241.419 135.753L242.393 121.329C242.547 119.057 242.274 117.367 241.574 116.26C240.915 115.156 239.713 114.545 237.968 114.427C235.98 114.293 234.37 114.897 233.138 116.241C231.909 117.544 231.211 119.433 231.043 121.908L230.16 134.993C229.985 137.59 228.619 138.802 226.063 138.629ZM285.696 142.778C278.92 142.32 275.788 138.298 276.3 130.71L278.244 101.923C278.417 99.3667 279.761 98.1735 282.276 98.3434C284.833 98.516 286.024 99.8804 285.852 102.437L283.933 130.859C283.686 134.511 285.084 136.439 288.128 136.645C288.452 136.666 288.756 136.687 289.04 136.706C289.327 136.685 289.614 136.663 289.901 136.642C290.474 136.599 290.849 136.788 291.024 137.207C291.202 137.586 291.252 138.364 291.172 139.54C291.104 140.555 290.848 141.332 290.404 141.873C289.959 142.413 289.267 142.713 288.325 142.772C287.465 142.836 286.589 142.838 285.696 142.778ZM297.539 139.726C296.662 140.033 295.91 140.003 295.283 139.634C294.696 139.269 294.303 138.753 294.103 138.087C293.907 137.381 293.931 136.71 294.178 136.075C294.468 135.402 295.052 134.911 295.928 134.603L318.585 126.84L297.177 116.102C296.35 115.679 295.838 115.114 295.641 114.408C295.485 113.705 295.55 113.037 295.838 112.404C296.128 111.731 296.588 111.252 297.218 110.969C297.889 110.688 298.639 110.759 299.466 111.182L323.112 123.172C324.926 124.069 325.772 125.43 325.649 127.256C325.52 129.163 324.496 130.439 322.578 131.084L297.539 139.726Z" fill="#87979F"/>
</svg>
