<svg width="91" height="59" viewBox="0 0 91 59" fill="none" xmlns="http://www.w3.org/2000/svg">
<path d="M31.1751 48.4061L5.90742 40.4574C3.97191 39.8656 2.91353 38.6184 2.73229 36.7156C2.55875 34.8939 3.36646 33.5097 5.15543 32.5631L28.4621 19.9261C29.2775 19.4807 30.0043 19.3911 30.6424 19.6571C31.321 19.9192 31.8145 20.3829 32.123 21.0479C32.4276 21.6725 32.4912 22.3405 32.3139 23.0519C32.177 23.7594 31.7009 24.3358 30.8854 24.7811L9.78218 36.1054L32.6439 43.2416C33.5288 43.5249 34.1052 44.0011 34.3732 44.67C34.6778 45.2946 34.7414 45.9626 34.5641 46.6739C34.3829 47.3448 33.9838 47.873 33.3669 48.2586C32.7905 48.6403 32.0599 48.6895 31.1751 48.4061ZM43.1634 52.2888C42.9726 53.2874 42.5061 53.965 41.7639 54.3217C41.0661 54.7149 40.321 54.8268 39.5286 54.6571C38.7807 54.5241 38.1734 54.153 37.7069 53.5439C37.1998 52.9386 37.0601 52.1144 37.2875 51.0715L47.1675 6.19537C47.3988 5.19292 47.8634 4.49505 48.5613 4.10177C49.2591 3.70849 49.9839 3.59859 50.7358 3.77207C51.5243 3.90122 52.1537 4.29062 52.6241 4.94027C53.1311 5.54559 53.2689 6.34947 53.0376 7.35193L43.1634 52.2888ZM62.6359 45.4092C61.8204 45.8546 61.0734 45.9462 60.3948 45.684C59.7567 45.418 59.2854 44.9727 58.9808 44.3481C58.6723 43.683 58.5884 43.0169 58.7292 42.3499C58.9065 41.6386 59.4029 41.0602 60.2183 40.6149L81.3216 29.2907L58.4598 22.1545C57.575 21.8711 56.9783 21.3969 56.6699 20.7318C56.4019 20.0628 56.3585 19.3929 56.5397 18.7221C56.717 18.0107 57.0939 17.4642 57.6703 17.0825C58.2872 16.6969 59.0381 16.6458 59.9229 16.9292L85.1963 24.9386C87.1319 25.5304 88.1864 26.7372 88.3599 28.5589C88.5412 30.4617 87.7373 31.8863 85.9483 32.8329L62.6359 45.4092Z" fill="#87979F"/>
</svg>
