<svg width="285" height="199" viewBox="0 0 285 199" fill="none" xmlns="http://www.w3.org/2000/svg">
<rect x="1.5" y="1.5" width="268" height="185" rx="9.5" fill="#F2EDF1" stroke="#998795" stroke-width="3"/>
<circle cx="15.5" cy="13.5" r="3.5" fill="#8A7171"/>
<circle cx="26.5" cy="13.5" r="3.5" fill="#8A7171"/>
<circle cx="37.5" cy="13.5" r="3.5" fill="#8A7171"/>
<path d="M12.5 177.5V25H47C49.9358 17.6505 51 12 54 12H93.5C96.5 12 98.6513 18.1916 101.5 25H258.5V177.5H12.5Z" fill="#9A8795"/>
<rect x="13" y="85" width="245" height="93" fill="#F7CAB7"/>
<rect x="13" y="85" width="139" height="48" fill="#DDB4ED"/>
<rect x="13" y="133" width="139" height="45" fill="#9FE0D0"/>
<rect x="20" y="141" width="125" height="29" stroke="#9A8795" stroke-width="2"/>
<rect x="20" y="94" width="125" height="29" stroke="#9A8795" stroke-width="2"/>
<rect x="228.5" y="101.5" width="55" height="96" rx="9.5" fill="#F2EDF1" stroke="#998795" stroke-width="3"/>
<line x1="245.5" y1="104.5" x2="266.5" y2="104.5" stroke="#998795" stroke-linecap="round"/>
<rect x="233" y="107" width="46" height="86" rx="3" fill="#9A8795"/>
<path d="M233 150H279V190C279 191.657 277.657 193 276 193H236C234.343 193 233 191.657 233 190V150Z" fill="#DDB4ED"/>
<line x1="13" y1="40" x2="258" y2="40" stroke="white" stroke-width="2"/>
<rect x="208" y="28" width="37" height="8" rx="4" fill="#98B8F1"/>
<line x1="233" y1="122" x2="279" y2="122" stroke="white" stroke-width="2"/>
<rect x="258" y="111" width="19" height="6" rx="3" fill="#F3A6AD"/>
</svg>
