<svg width="285" height="199" viewBox="0 0 285 199" fill="none" xmlns="http://www.w3.org/2000/svg">
<rect x="1.5" y="1.5" width="268" height="185" rx="9.5" fill="#F2EDF1" stroke="#998795" stroke-width="3"/>
<circle cx="15.5" cy="13.5" r="3.5" fill="#8A7171"/>
<circle cx="26.5" cy="13.5" r="3.5" fill="#8A7171"/>
<circle cx="37.5" cy="13.5" r="3.5" fill="#8A7171"/>
<path d="M12.5 177.5V25H47C49.9358 17.6505 51 12 54 12H93.5C96.5 12 98.6513 18.1916 101.5 25H258.5V177.5H12.5Z" fill="#9A8795"/>
<rect x="13" y="105" width="245" height="73" fill="#F3A6AD"/>
<rect x="228.5" y="101.5" width="55" height="96" rx="9.5" fill="#F2EDF1" stroke="#998795" stroke-width="3"/>
<line x1="245.5" y1="104.5" x2="266.5" y2="104.5" stroke="#998795" stroke-linecap="round"/>
<rect x="233" y="107" width="46" height="86" rx="3" fill="#9A8795"/>
<path d="M233 146H279V190C279 191.657 277.657 193 276 193H236C234.343 193 233 191.657 233 190V146Z" fill="#F7CAB7"/>
<line x1="12" y1="43" x2="258" y2="43" stroke="white" stroke-width="2"/>
<circle cx="246" cy="34" r="5" fill="#98B7EF"/>
<circle cx="232" cy="34" r="5" fill="#F7CAB7"/>
<circle cx="218" cy="34" r="5" fill="#9FDECF"/>
<circle r="3" transform="matrix(0.000527263 1 1 -0.000527263 273.01 129.002)" fill="#98B7EF"/>
<circle r="3" transform="matrix(0.000527263 1 1 -0.000527263 273.006 121.002)" fill="#F7CAB7"/>
<circle r="3" transform="matrix(0.000527263 1 1 -0.000527263 273.002 113.002)" fill="#9FDECF"/>
<path fill-rule="evenodd" clip-rule="evenodd" d="M118.506 178C118.831 175.881 119 173.71 119 171.5C119 148.028 99.9721 129 76.5 129C53.0279 129 34 148.028 34 171.5C34 173.71 34.1687 175.881 34.4939 178H118.506Z" fill="#9FDECF"/>
<mask id="path-19-inside-1_104_199" fill="white">
<path fill-rule="evenodd" clip-rule="evenodd" d="M112.576 178.082C112.855 176.262 113 174.398 113 172.5C113 152.342 96.6584 136 76.5 136C56.3416 136 40 152.342 40 172.5C40 174.398 40.1449 176.262 40.4242 178.082H112.576Z"/>
</mask>
<path d="M112.576 178.082V180.082H114.292L114.553 178.386L112.576 178.082ZM40.4242 178.082L38.4473 178.386L38.7077 180.082H40.4242V178.082ZM111 172.5C111 174.296 110.863 176.059 110.599 177.779L114.553 178.386C114.847 176.466 115 174.5 115 172.5H111ZM76.5 138C95.5538 138 111 153.446 111 172.5H115C115 151.237 97.763 134 76.5 134V138ZM42 172.5C42 153.446 57.4462 138 76.5 138V134C55.237 134 38 151.237 38 172.5H42ZM42.4011 177.779C42.1371 176.059 42 174.296 42 172.5H38C38 174.5 38.1527 176.466 38.4473 178.386L42.4011 177.779ZM40.4242 180.082H112.576V176.082H40.4242V180.082Z" fill="white" mask="url(#path-19-inside-1_104_199)"/>
<line x1="42" y1="177" x2="111" y2="177" stroke="#9FDECF" stroke-width="2"/>
<path fill-rule="evenodd" clip-rule="evenodd" d="M275.02 193.045C275.166 192.092 275.242 191.115 275.242 190.121C275.242 179.561 266.681 171 256.121 171C245.561 171 237 179.561 237 190.121C237 191.115 237.076 192.092 237.222 193.045H275.02Z" fill="#DDB4ED"/>
<mask id="path-23-inside-2_104_199" fill="white">
<path fill-rule="evenodd" clip-rule="evenodd" d="M272.351 193.082C272.477 192.264 272.542 191.425 272.542 190.571C272.542 181.502 265.19 174.149 256.121 174.149C247.051 174.149 239.699 181.502 239.699 190.571C239.699 191.425 239.765 192.264 239.89 193.082H272.351Z"/>
</mask>
<path d="M272.351 193.082V194.082H273.21L273.34 193.234L272.351 193.082ZM239.89 193.082L238.902 193.234L239.032 194.082H239.89V193.082ZM271.542 190.571C271.542 191.374 271.481 192.162 271.363 192.931L273.34 193.234C273.473 192.365 273.542 191.476 273.542 190.571H271.542ZM256.121 175.149C264.638 175.149 271.542 182.054 271.542 190.571H273.542C273.542 180.949 265.742 173.149 256.121 173.149V175.149ZM240.699 190.571C240.699 182.054 247.604 175.149 256.121 175.149V173.149C246.499 173.149 238.699 180.949 238.699 190.571H240.699ZM240.879 192.931C240.761 192.162 240.699 191.374 240.699 190.571H238.699C238.699 191.476 238.768 192.365 238.902 193.234L240.879 192.931ZM239.89 194.082H272.351V192.082H239.89V194.082Z" fill="white" mask="url(#path-23-inside-2_104_199)"/>
<path d="M240.742 192.5L271.479 192.5" stroke="#DDB4ED"/>
</svg>
